<?xml version="1.0" encoding="iso-8859-1"?>
<!-- Generator: Adobe Illustrator 19.0.0, SVG Export Plug-In . SVG Version: 6.00 Build 0)  -->
<svg xmlns="http://www.w3.org/2000/svg" xmlns:xlink="http://www.w3.org/1999/xlink" version="1.1" id="Layer_1" x="0px" y="0px" viewBox="0 0 512 512" style="enable-background:new 0 0 512 512;" xml:space="preserve">
<g>
	<g>
		<g>
			<path d="M356.209,249.372c3.841,1.548,8.212-0.314,9.758-4.156c33.005-81.992-37.798-156.983-109.967-114.17     c-69.778-41.391-144.105,29.366-109.967,114.17c7.489,18.605,19.335,34.374,34.404,45.866     c-4.564,46.49,13.835,97.661,34.238,97.678c7.213,0,11.729-5.758,13.744-12.824c3.984-13.915-0.64-24.083,5.722-43.688     c2.755-7.917,8.714-13.064,13.999-14.702h-0.001c24.079-6.906,32.862,13.81,33.498,39.022c0.052,2.901-0.225,12.628,2.216,20.28     c4.202,13.216,16.344,16.589,27.007,4.445c13.375-15.233,24.393-52.589,20.7-90.213c8.34-6.365,15.729-14.085,22.005-23.001     c2.385-3.387,1.571-8.065-1.815-10.45c-3.388-2.386-8.067-1.57-10.45,1.815c-15.621,22.19-26.248,20.408-25.121,29.107     c5.131,39.616-8.171,75.118-17.883,84.191c-2.734-7.86-0.607-16.574-2.843-31.309l-0.001,0.001     c-2.438-17.533-10.908-33.346-27.369-38.284c-19.33-5.818-45.813,0.693-51.512,38.1h0.001     c-2.242,14.644-0.179,23.888-2.87,31.493c-9.717-9.075-23.014-44.589-17.883-84.192c0.36-2.78-0.86-5.53-3.164-7.128     c-14.407-9.987-25.717-24.445-32.708-41.811c-29.008-72.07,33.096-132.504,91.904-93.465c7.828,5.194,11.126-6.581,34.908-11.077     c54.057-9.883,87.531,49.292,65.293,104.544C350.506,243.457,352.366,247.826,356.209,249.372z"/>
			<path d="M433.335,305.129c4.143,0,7.5-3.357,7.5-7.5V78.22c0-3.519-2.446-6.564-5.882-7.323     C245.325,29.005,256.77,31.192,254.383,31.721L77.049,70.897c-3.436,0.759-5.882,3.805-5.882,7.323v271.107     c0,46.616,49.924,79.792,91.807,99.416c37.361,17.503,89.857,32.676,94.751,31.514c68.42-16.198,183.111-60.332,183.111-130.93     v-27.698c0-4.143-3.357-7.5-7.5-7.5c-4.143,0-7.5,3.357-7.5,7.5v27.698c0,60.74-110.632,101.551-169.841,115.92     c-59.273-14.352-169.827-55.247-169.827-115.92V84.244l169.834-37.52l169.834,37.52v213.384     C425.835,301.772,429.192,305.129,433.335,305.129z"/>
			<path d="M453.883,43.188L332.669,16.409c-4.045-0.901-8.049,1.66-8.941,5.705c-0.894,4.045,1.661,8.048,5.705,8.941     l121.214,26.778c3.726,0.823,6.328,4.063,6.328,7.88v283.613c0,54.339-52.385,91.21-101.099,114.031     c-43.311,20.292-96.77,34.479-101.559,33.465c-44.541-9.513-124.188-36.743-166.726-78.378     c-21.609-21.154-32.566-44.408-32.566-69.117V65.714c0-3.756,2.662-7.069,6.329-7.88l192.904-42.615     c2.439-0.536-0.518-0.884,50.64,10.418c4.043,0.89,8.049-1.661,8.941-5.705c0.894-4.045-1.661-8.048-5.705-8.941     C257.274-0.245,257.658-0.892,251.024,0.573L58.119,43.188c-10.653,2.354-18.093,11.617-18.093,22.526v283.613     c0,28.894,12.474,55.755,37.074,79.837c42.86,41.951,121.783,71.149,174.101,82.331c3.069,0.648,6.302,0.696,9.615-0.003     c2.077-0.444,51.44-11.135,101.424-34.551c55.292-25.906,109.735-66.862,109.735-127.615V65.714     C471.975,54.805,464.535,45.542,453.883,43.188z"/>
		</g>
	</g>
</g>
<g>
</g>
<g>
</g>
<g>
</g>
<g>
</g>
<g>
</g>
<g>
</g>
<g>
</g>
<g>
</g>
<g>
</g>
<g>
</g>
<g>
</g>
<g>
</g>
<g>
</g>
<g>
</g>
<g>
</g>
</svg>
