<?xml version="1.0" encoding="iso-8859-1"?>
<!-- Generator: Adobe Illustrator 19.0.0, SVG Export Plug-In . SVG Version: 6.00 Build 0)  -->
<svg xmlns="http://www.w3.org/2000/svg" xmlns:xlink="http://www.w3.org/1999/xlink" version="1.1" id="Layer_1" x="0px" y="0px" viewBox="0 0 512 512" style="enable-background:new 0 0 512 512;" xml:space="preserve">
<g>
	<g>
		<g>
			<path d="M438.796,302.857c3.554,2.127,8.162,0.969,10.287-2.587c33.849-56.592,3.695-130.635-58.473-122.197     c-11.728,1.633-23.926,6.656-32.061,14.792c-7.797,6.7-15.261,6.762-23.13,0.002c-19.936-18.583-54.244-20.132-74.172-6.338     c-44.197,30.068-40.29,107.651,11.812,144.287c-2.455,27.104,1.866,61.658,3.412,66.91c2.356,7.998,13.843,6.938,14.724-1.332     c0.082-0.781,8.797-78.187,55.783-78.219c46.878,0.032,55.708,77.442,55.791,78.219c0.382,3.618,3.361,6.672,7.506,6.714     c6.658-0.035,7.935-6.102,8.425-12.728c1.794-12.733,4.297-36.505,2.208-59.566c4.805-3.383,9.333-7.226,13.499-11.455     c2.906-2.951,2.87-7.701-0.081-10.607c-2.952-2.906-7.701-2.871-10.607,0.081c-4.25,4.315-8.94,8.151-13.941,11.403     c-2.921,1.373-4.64,4.465-4.256,7.678c0.956,8.004,1.24,16.319,1.141,24.222c-11.167-27.454-30.28-48.941-59.684-48.961     c-29.456,0.02-48.519,21.573-59.676,48.961c-0.099-7.901,0.187-16.213,1.143-24.222c0.381-3.191-1.367-6.289-4.255-7.678     c-43.319-28.163-52.838-92.553-14.3-121.447c14.236-9.754,40.41-8.938,55.435,5.175c5.408,5.066,13.389,8.961,21.791,8.961     c22.923,0,22.196-23.087,58.94-20.357c33.092,2.916,58.212,53.09,30.154,100.003C434.082,296.125,435.24,300.73,438.796,302.857z     "/>
			<path d="M495.603,178.439c-2.04-3.605-6.618-4.874-10.222-2.834c-3.605,2.04-4.874,6.616-2.834,10.222     c30.6,54.07,10.916,132.856-43.543,170.61c-2.304,1.598-3.525,4.348-3.164,7.13c8.793,67.828-18.978,121.681-29.768,124.883     c-7.655-8.228-0.476-40.157-10.818-68.3c-16.248-46.513-81.275-47.666-97.271,2.153h0.001l-0.064,0.197l7.146,2.276l-7.187-2.151     c-9.577,29.783-2.46,57.705-9.981,65.821c-11.852-3.593-38.267-59.348-29.773-124.88c1.227-9.446-12.086-7.647-33.33-36.606     c-38.965-52.682-37.203-128.771,7.468-166.466c27.825-23.205,67.401-28.049,107.912-3.659c2.768,1.736,6.324,4.746,11.191,1.535     c42.778-28.221,89.911-20.965,118.035,9.442c2.815,3.035,7.562,3.215,10.601,0.398c3.036-2.816,3.215-7.564,0.398-10.601     c-32.232-34.984-85.475-43.488-133.416-14.229c-15.497-9.448-27.224-12.936-40.593-15.883l19.494-19.494     c7.815-7.816,7.815-20.535,0-28.356l-36.982-36.979c-7.835-7.833-20.521-7.838-28.355,0l-21.788,21.789     c-4.084-1.937-8.262-3.67-12.495-5.186V28.471c0-11.057-8.995-20.052-20.051-20.052h-52.296     c-11.057,0-20.051,8.996-20.051,20.052v30.801c-4.236,1.517-8.414,3.251-12.494,5.186l-21.785-21.79     c-7.843-7.837-20.523-7.837-28.357,0.001l-36.982,36.98c-7.816,7.819-7.815,20.538,0.002,28.356l21.789,21.787     c-1.937,4.084-3.67,8.262-5.186,12.496h-30.8c-11.057,0-20.051,8.995-20.051,20.05L0,214.632     c0,11.057,8.995,20.052,20.051,20.052h30.802c1.516,4.233,3.249,8.41,5.186,12.494l-21.786,21.785     c-7.819,7.817-7.821,20.538-0.004,28.359l36.981,36.98c7.837,7.835,20.513,7.839,28.358-0.001l21.785-21.788     c4.083,1.937,8.261,3.67,12.494,5.187v30.801c0,11.057,8.995,20.052,20.051,20.052h52.296c10.032,0,18.343-7.415,19.801-17.046     c5.2,5.305,10.771,10.198,16.702,14.604c-4,37.114,1.946,75.591,14.573,104.513c18.2,41.68,39.217,38.148,46.17,20.46     c7.162-18.226-0.029-38.258,9.417-66.004c4.408-12.6,13.872-20.35,22.135-22.905h-0.001c18.759-5.634,38.93,1.077,46.788,25.021     H381.8c8.349,26.182,1.747,46.177,8.707,63.889c5.589,14.22,16.725,12.417,15.324,12.418     c25.53-0.017,52.727-69.652,45.417-137.39C508.963,323.246,529.505,238.299,495.603,178.439z M181.97,238.954     c-28.322,1.127-52.412-21.679-52.412-50.47c0-45.628,56.169-67.917,87.445-34.401C194.59,175.937,182.398,208.435,181.97,238.954     z M211.268,348.502h-0.004c0,2.785-2.266,5.051-5.05,5.051h-52.296c-2.784,0-5.05-2.266-5.05-5.051v-36.196     c0-3.281-2.133-6.181-5.265-7.16c-6.93-2.164-13.736-4.988-20.229-8.397c-2.906-1.525-6.469-0.985-8.79,1.338     c-27.667,27.67-26.353,27.086-29.177,27.086c-2.913,0-0.559,1.531-40.549-38.458c-1.97-1.97-1.969-5.174,0.001-7.143     l25.607-25.605c2.321-2.321,2.863-5.882,1.339-8.79c-3.409-6.496-6.233-13.302-8.396-20.228     c-0.977-3.133-3.878-5.267-7.159-5.267H20.051c-2.784,0-5.05-2.266-5.05-5.051l0.001-52.295c0-2.784,2.266-5.049,5.05-5.049     h36.197c3.281,0,6.183-2.134,7.159-5.267c2.162-6.93,4.986-13.735,8.396-20.23c1.524-2.907,0.982-6.468-1.339-8.79L44.857,97.397     c-1.969-1.968-1.969-5.172-0.001-7.142c39.946-39.943,37.632-38.458,40.551-38.458c2.883,0,1.719-0.374,29.177,27.087     c2.321,2.323,5.883,2.864,8.792,1.338c6.482-3.404,13.288-6.229,20.227-8.397c3.132-0.979,5.265-3.878,5.265-7.159V28.471     c0-2.785,2.266-5.051,5.05-5.051h52.296c2.784,0,5.05,2.266,5.05,5.051v36.196c0,3.281,2.133,6.182,5.266,7.159     c6.93,2.163,13.735,4.986,20.229,8.396c2.907,1.523,6.469,0.983,8.79-1.338l25.609-25.609c1.969-1.969,5.166-1.972,7.14,0.002     l36.98,36.978c1.969,1.97,1.97,5.175,0.001,7.143c-27.774,27.774-26.539,26.18-27.325,28.274     c-11.618-0.176-23.79,1.778-35.432,6.026c-4.474-5.702-9.593-10.868-15.291-15.39c-3.245-2.576-7.963-2.032-10.538,1.213     s-2.031,7.964,1.213,10.538c3.817,3.028,7.329,6.398,10.499,10.067c-3.567,1.978-6.825,4.07-9.896,6.283     c-40.187-44.086-113.95-15.629-113.95,44.074c0,36.995,30.808,66.794,67.792,65.47c0.288,3.981,0.751,8.054,1.27,11.521     c-43.788,2.052-80.624-33.075-80.624-76.99c0-54.81,55.906-92.181,106.5-71.254c3.827,1.581,8.215-0.236,9.798-4.064     c1.583-3.827-0.236-8.215-4.064-9.798C154.68,78.324,87.997,123.117,87.997,188.484c0,53.27,45.335,95.634,98.585,91.839     c4.36,17.734,12.817,36.963,24.686,53.587V348.502z"/>
		</g>
	</g>
</g>
<g>
</g>
<g>
</g>
<g>
</g>
<g>
</g>
<g>
</g>
<g>
</g>
<g>
</g>
<g>
</g>
<g>
</g>
<g>
</g>
<g>
</g>
<g>
</g>
<g>
</g>
<g>
</g>
<g>
</g>
</svg>
