<?xml version="1.0" encoding="iso-8859-1"?>
<!-- Generator: Adobe Illustrator 19.0.0, SVG Export Plug-In . SVG Version: 6.00 Build 0)  -->
<svg xmlns="http://www.w3.org/2000/svg" xmlns:xlink="http://www.w3.org/1999/xlink" version="1.1" id="Layer_1" x="0px" y="0px" viewBox="0 0 512 512" style="enable-background:new 0 0 512 512;" xml:space="preserve">
<g>
	<g>
		<g>
			<path d="M266.845,259.647c-2.929-2.927-7.676-2.929-10.606,0L87.91,427.977c-4.739,4.74-1.318,12.802,5.302,12.802     c4.52,0-6.786,9.893,173.631-170.526C269.774,267.324,269.774,262.577,266.845,259.647z"/>
			<path d="M359.581,198.172c15.72,9.701,33.641,14.793,52.296,14.793c75.261,0,123.744-80.582,88.278-146.983     c-1.951-3.653-6.491-5.034-10.147-3.082c-3.653,1.951-5.033,6.494-3.082,10.147c30.125,56.414-11.07,124.92-75.05,124.92     c-16.578,0-32.476-4.731-46.264-13.728c0.793-13.172-10.294-24.386-23.875-23.307c-38.502-55.965,1.772-132.99,70.139-132.99     c23.54,0,45.451,9.443,61.696,26.589c2.849,3.007,7.595,3.135,10.602,0.286c3.007-2.849,3.135-7.595,0.286-10.602     c-19.106-20.165-44.884-31.271-72.583-31.271c-79.172,0-126.963,88.24-83.941,154.32c-14.363,14.358-0.304,0.297-0.045,0.038     c-0.18,0.18-10.555,10.555-56.004,56.004c-7.152-3.606-16.14-2.488-22.199,3.575l-12.882,12.882l-55.54-55.54     c-6.64-6.633-16.501-7.619-24.065-3.549l-35.441-35.443c-8.273-8.272-20.849-8.963-29.818-2.948h-75.64     c-1.861,0-1.303,4.143-1.303-79.414c0-4.141-3.358-7.499-7.499-7.499C3.358,55.371,0,58.728,0,62.87v78.111     c0,8.988,7.312,16.301,16.301,16.301h65.595c-1.499,7.553,0.682,15.571,6.463,21.352l35.451,35.452     c-4.135,7.719-2.959,17.557,3.544,24.061l55.533,55.533C22.6,453.965,32.187,444.116,30.608,446.51     c-4.914,7.45-4.095,17.599,2.458,24.152c24.575,24.575,23.572,23.764,25.777,25.224c0.004,0.002,0.008,0.004,0.011,0.007     c7.495,4.953,17.621,4.055,24.14-2.464l15.867-15.867c0.001-0.001,0.001-0.001,0.001-0.002l84.695-84.695     c2.929-2.93,2.929-7.677,0-10.606c-2.929-2.928-7.677-2.928-10.605,0l-79.394,79.393l-28.716-28.716     c209.32-209.318,195.838-196.684,198.427-196.684c1.124,0,2.181,0.438,2.976,1.234c24.761,24.76,23.999,23.416,23.999,25.741     c0,2.541,7.364-5.624-100.293,102.036c-2.929,2.93-2.929,7.677,0,10.606c2.929,2.928,7.677,2.928,10.605,0l32.261-32.262     l21.326,21.325c3.852,3.853,8.973,5.975,14.421,5.975c3.425,0,6.718-0.841,9.65-2.42c4.026,4.026,120.609,120.61,124.591,124.592     c3.854,3.853,8.975,5.974,14.422,5.974c9.561,0,13.974-5.527,18.978-10.532c7.972-7.97,7.974-20.875,0.001-28.843     c-29.774-29.779-3.059-3.063-87.009-87.012c-2.93-2.928-7.677-2.928-10.606,0c-2.929,2.93-2.929,7.677,0,10.606l64.232,64.229     l-12.191,12.191L289.427,358.491l12.19-12.19l19.972,19.973c2.93,2.928,7.677,2.928,10.606,0c2.929-2.93,2.929-7.677,0-10.606     l-20.581-20.581c4.09-7.597,3.06-17.458-3.558-24.072l-21.325-21.324l12.88-12.88c6.063-6.058,7.183-15.045,3.577-22.202     C366.821,190.976,358.393,199.425,359.581,198.172z M82.953,472.259c-11.49,11.49-10.627,10.717-11.307,11.146     c-1.526,0.956-3.038,0.571-3.038,0.571c-1.655-0.314-0.691,0.327-24.937-23.919c-1.641-1.642-1.641-4.311,0-5.951l10.565-10.565     L82.953,472.259z M98.965,168.027c-3.369-3.366-3.372-8.822-0.003-12.19c3.371-3.37,8.823-3.369,12.193-0.001l34.832,34.834     l-12.19,12.19L98.965,168.027z M193.493,283.074l-55.532-55.533c-2.105-2.105-2.105-5.529-0.001-7.633     c3.113-3.112,21.299-21.297,25.074-25.074c2.13-2.13,5.545-2.088,7.629-0.004l55.537,55.537     C222.572,253.995,196.988,279.578,193.493,283.074z M413.427,458.11l12.173,12.175c2.104,2.101,2.114,5.515-0.002,7.631     c-4.716,4.716-5.588,6.139-8.373,6.139c-2.896,0-2.784-0.547-15.989-13.755L413.427,458.11z M299.035,325.437     c0,2.999,0.756,1.479-26.656,28.889c-2.111,2.111-5.522,2.112-7.632,0L243.42,333l32.706-32.707     C299.31,323.478,299.033,322.459,299.035,325.437z M293.277,243.307l-10.091-10.092c59.672-59.67,55.747-56.124,57.79-56.903     c7.682-2.553,12.754,6.54,7.584,11.71L293.277,243.307z"/>
			<path d="M457.12,157.727c3.263,2.55,7.977,1.972,10.526-1.293c36.231-46.383,2.826-114.22-55.769-114.22     c-39.008,0-70.742,31.734-70.742,70.741c0,53.984,58.426,88.151,105.396,61.658c3.607-2.034,4.882-6.607,2.849-10.216     c-2.036-3.607-6.607-4.884-10.217-2.848c-37.022,20.879-83.03-6.092-83.03-48.596c0-30.736,25.007-55.743,55.744-55.743     c46.187,0,72.484,53.463,43.95,89.989C453.278,150.465,453.857,155.178,457.12,157.727z"/>
		</g>
	</g>
</g>
<g>
</g>
<g>
</g>
<g>
</g>
<g>
</g>
<g>
</g>
<g>
</g>
<g>
</g>
<g>
</g>
<g>
</g>
<g>
</g>
<g>
</g>
<g>
</g>
<g>
</g>
<g>
</g>
<g>
</g>
</svg>
