<?xml version="1.0" encoding="iso-8859-1"?>
<!-- Generator: Adobe Illustrator 19.0.0, SVG Export Plug-In . SVG Version: 6.00 Build 0)  -->
<svg xmlns="http://www.w3.org/2000/svg" xmlns:xlink="http://www.w3.org/1999/xlink" version="1.1" id="Layer_1" x="0px" y="0px" viewBox="0 0 512.003 512.003" style="enable-background:new 0 0 512.003 512.003;" xml:space="preserve">
<g>
	<g>
		<g>
			<path d="M467.863,34.661c-2.673-3.164-7.404-3.561-10.568-0.887c-3.164,2.674-3.562,7.405-0.888,10.569     c43.75,51.769,9.641,132.726-59.402,135.85c-47.275,2.118-86.386-35.746-86.386-82.545c0-66.028,74.191-105.494,128.877-68.503     c3.43,2.322,8.093,1.421,10.413-2.009c2.321-3.43,1.421-8.093-2.01-10.414c-36.304-24.561-85.04-22.019-118.695,7.297     c-33.84-4.164-66.655,5.139-94.554,22.538c-90.955-56.726-194.515-6.461-211.083,99.597     c-10.941,60.498,14.784,141.834,77.321,187.576c-10.028,89.35,26.188,178.212,56.896,178.212c3.243,0,5.803-0.94,7.486-1.818     c15.64-8.155,14.917-38.132,15.261-52.945c0.908-41.538,12.698-79.559,54.117-80.023c37.754,0.423,50.706,31.33,53.59,68.961     c1.38,18.71-1.949,54.757,15.791,64.007c31.753,16.561,75.268-79.382,64.381-176.395c16.174-11.836,30.44-26.459,42.454-43.526     c2.385-3.387,1.571-8.064-1.815-10.449c-3.389-2.386-8.066-1.57-10.449,1.815c-11.907,16.915-26.186,31.206-42.442,42.473     c-2.304,1.598-3.523,4.346-3.164,7.127c10.593,81.763-19.349,151.304-37.702,164.117c-1.504,1.051-3.432,2.006-4.328,1.538     c-0.292-0.151-7.137-4.071-7.137-34.612c0-53.096-16.64-100.054-69.251-100.054c-52.262,0.514-69.102,47.534-69.102,100.054     c0,30.541-6.845,34.461-7.137,34.612c-0.9,0.468-2.825-0.487-4.328-1.538c-18.352-12.813-48.295-82.354-37.704-164.117     c0.36-2.781-0.86-5.529-3.165-7.127C9.687,252.327,12.14,87.043,113.747,46.145c35.664-14.356,78.261-9.96,116.757,15.58     c2.513,1.667,5.778,1.668,8.291,0c22.797-15.122,49.484-24.339,77.169-23.673c-13.295,17.336-20.342,37.986-20.342,59.597     c0,71.277,73.455,117.224,136.825,89.439c-1.901,26.884-9.919,52.733-22.04,75.338c-1.958,3.65-0.586,8.195,3.064,10.153     c3.649,1.96,8.196,0.585,10.153-3.065c14.527-27.085,23.529-58.311,24.217-90.945C496.604,145.57,504.858,78.436,467.863,34.661z     "/>
			<path d="M393.259,160.618c12.958,0,23.501-10.543,23.501-23.5v-15.969h15.969c12.957,0,23.499-10.543,23.499-23.501     s-10.542-23.5-23.499-23.5H416.76V58.181c0-12.957-10.543-23.5-23.501-23.5c-12.957,0-23.499,10.542-23.499,23.5V74.15h-15.971     c-12.957,0-23.499,10.542-23.499,23.5s10.542,23.501,23.499,23.501h15.971v15.969     C369.76,150.075,380.302,160.618,393.259,160.618z M353.79,106.152L353.79,106.152c-4.688-0.001-8.501-3.815-8.501-8.504     c0-4.687,3.812-8.502,8.501-8.502h23.47c4.142,0,7.499-3.358,7.499-7.499V58.181c0-4.687,3.813-8.502,8.501-8.502     s8.503,3.813,8.503,8.502v23.468c0,4.141,3.357,7.499,7.499,7.499h23.468c4.688,0,8.501,3.813,8.501,8.502     s-3.813,8.503-8.501,8.503h-23.468c-4.142,0-7.499,3.358-7.499,7.499v23.468c0,4.687-3.813,8.502-8.503,8.502     c-4.688,0-8.501-3.813-8.501-8.502v-23.468c0-4.141-3.357-7.499-7.499-7.499H353.79z"/>
		</g>
	</g>
</g>
<g>
</g>
<g>
</g>
<g>
</g>
<g>
</g>
<g>
</g>
<g>
</g>
<g>
</g>
<g>
</g>
<g>
</g>
<g>
</g>
<g>
</g>
<g>
</g>
<g>
</g>
<g>
</g>
<g>
</g>
</svg>
