<?xml version="1.0" encoding="iso-8859-1"?>
<!-- Generator: Adobe Illustrator 19.0.0, SVG Export Plug-In . SVG Version: 6.00 Build 0)  -->
<svg xmlns="http://www.w3.org/2000/svg" xmlns:xlink="http://www.w3.org/1999/xlink" version="1.1" id="Layer_1" x="0px" y="0px" viewBox="0 0 512.004 512.004" style="enable-background:new 0 0 512.004 512.004;" xml:space="preserve">
<g>
	<g>
		<path d="M437.396,0.039c-71.602,0-66.602-0.288-68.728,0.709c-71.185,33.377-154.058,33.417-225.329,0    c-0.996-0.467-2.083-0.709-3.184-0.709H74.61c-14.637,0-26.544,11.907-26.544,26.543v99.973c0,14.637,11.907,26.544,26.544,26.544    h52.279v18.81c0,14.07,11.447,25.517,25.517,25.517h29.109v6.814c-10.061,0.051-19.215,6.899-21.736,17.102    c-2.975,12.044,4.402,24.264,16.445,27.241l5.291,1.308v14.029c-10.324,0.043-19.254,7.062-21.736,17.103    c-2.975,12.043,4.402,24.263,16.445,27.24l5.291,1.308v14.03c-10.324,0.043-19.254,7.062-21.736,17.103    c-2.975,12.043,4.402,24.264,16.445,27.241l5.291,1.308v14.03c-10.063,0.052-19.214,6.9-21.736,17.101    c-2.975,12.043,4.402,24.264,16.446,27.241l5.29,1.308v8.591c0,41.071,33.415,74.485,74.487,74.485    c30.84,0,58.409-19.214,69.415-47.517c19.665,4.718,34.674-16.662,24.51-33.503c-5.436-9.004-13.427-10.107-19.44-11.593v-13.962    c17.468,0.252,28.539-19.048,19.44-34.126c-5.436-9.004-13.427-10.107-19.44-11.593v-13.963    c17.417,0.279,28.557-19.018,19.44-34.125c-5.436-9.004-13.427-10.107-19.44-11.593v-13.965    c17.417,0.279,28.557-19.018,19.44-34.125c-5.436-9.003-13.427-10.107-19.44-11.593v-42.926h29.111    c14.07,0,25.517-11.446,25.517-25.517v-18.81h52.28c14.637,0,26.544-11.907,26.544-26.544V26.581    C463.939,11.945,452.033,0.039,437.396,0.039z M332.465,435.327c4.023,0.995,6.476,5.055,5.48,9.081    c-0.995,4.029-5.038,6.479-9.079,5.48l-86.848-21.463c-4.02-0.992-8.087,1.462-9.081,5.481c-0.993,4.021,1.461,8.087,5.481,9.081    l72.29,17.865c-9.232,21.616-30.734,36.148-54.706,36.148c-32.802,0-59.487-26.685-59.487-59.485v-4.884l18.165,4.488    c4.02,0.996,8.086-1.461,9.08-5.482c0.993-4.021-1.461-8.086-5.482-9.08l-38.453-9.502c-4.015-0.993-6.475-5.067-5.482-9.081    c0.992-4.015,5.071-6.476,9.08-5.482L332.465,435.327z M196.515,386.276v-13.324l118.973,29.402v13.326    C311.141,414.605,205.553,388.509,196.515,386.276z M332.465,375.647c4.022,0.994,6.476,5.053,5.48,9.081    c-0.995,4.029-5.038,6.479-9.079,5.48c-15.677-3.875-134.908-33.341-149.042-36.833c-4.015-0.992-6.475-5.066-5.482-9.08    c0.999-4.042,5.056-6.482,9.08-5.482C189.826,340.396,326.701,374.223,332.465,375.647z M196.515,326.597v-13.326    c12.061,2.982,105.881,26.167,118.973,29.402V356L196.515,326.597z M332.465,315.967c4.023,0.994,6.476,5.055,5.48,9.08    c-0.991,4.014-5.025,6.483-9.079,5.48l-149.042-36.833c-4.015-0.992-6.475-5.065-5.482-9.079c0.997-4.034,5.049-6.483,9.08-5.482    L332.465,315.967z M196.515,266.917v-13.325l118.973,29.402v13.326L196.515,266.917z M337.086,259.693    c2.985,4.945-0.537,11.379-6.409,11.379c-1.281,0,8.784,2.391-150.853-37.057c-4.015-0.992-6.475-5.066-5.482-9.08    c0.992-4.016,5.071-6.477,9.08-5.482l88.287,21.82c4.024,0.997,8.087-1.461,9.081-5.482c0.993-4.021-1.461-8.087-5.481-9.081    l-78.793-19.474v-9.815h118.972v39.219l-15.524-3.837c-4.022-0.996-8.086,1.461-9.081,5.482c-0.993,4.021,1.461,8.087,5.481,9.081    C335.411,257.017,334.946,256.148,337.086,259.693z M448.941,126.553h-0.001c0,6.365-5.179,11.544-11.544,11.544h-89.315    c-4.143,0-7.5,3.358-7.5,7.5c0,4.143,3.357,7.5,7.5,7.5h22.035v18.81c0,5.799-4.718,10.517-10.517,10.517    c-9.102,0-199.977,0-207.192,0c-5.8,0-10.518-4.718-10.518-10.517v-18.81h179.535c4.143,0,7.5-3.357,7.5-7.5    c0-4.142-3.357-7.5-7.5-7.5H74.61c-6.365,0-11.544-5.179-11.544-11.544V26.581c0-6.365,5.179-11.543,11.544-11.543h63.886    c74.328,34.318,160.582,34.367,235.015,0h63.886c6.365,0,11.544,5.178,11.544,11.543V126.553z"/>
	</g>
</g>
<g>
</g>
<g>
</g>
<g>
</g>
<g>
</g>
<g>
</g>
<g>
</g>
<g>
</g>
<g>
</g>
<g>
</g>
<g>
</g>
<g>
</g>
<g>
</g>
<g>
</g>
<g>
</g>
<g>
</g>
</svg>
