<?xml version="1.0" encoding="iso-8859-1"?>
<!-- Generator: Adobe Illustrator 19.0.0, SVG Export Plug-In . SVG Version: 6.00 Build 0)  -->
<svg xmlns="http://www.w3.org/2000/svg" xmlns:xlink="http://www.w3.org/1999/xlink" version="1.1" id="Layer_1" x="0px" y="0px" viewBox="0 0 512 512" style="enable-background:new 0 0 512 512;" xml:space="preserve">
<g>
	<g>
		<path d="M353.507,233.005c-0.185-3.725-0.46-7.433-0.848-11.094c78.539-58.66,72.089-183.396-6.623-215.08    c-29.388-11.83-61.907-7.425-89.777,9.525C166.122-38.471,70.758,53.262,114.574,162.122c9.809,24.368,25.414,44.951,45.284,59.79    c-0.388,3.665-0.663,7.373-0.847,11.094c-7.833,2.65-13.494,10.056-13.494,18.772v47.769c0,10.934,8.895,19.827,19.827,19.827    h6.877v8.258c0,10.148,7.699,19.827,21.063,19.827v8.881c-7.573,0.971-9.013,11.411-1.938,14.358l1.938,0.808v21.313    c-7.573,0.971-9.013,11.411-1.938,14.358l1.938,0.808v21.314c-7.575,0.972-9.013,11.41-1.938,14.357l1.938,0.808    c0,9.25-0.62,11.907,2.432,14.704c59.918,54.925,56.488,52.821,60.541,52.821c3.89,0,2.684,0.214,32.969-27.547    c2.838,1.182,3.769,1.71,5.596,1.71c6.278,0,9.789-7.291,5.849-12.201l15.943-14.613c9.113,2.898,13.864-10.439,5.154-14.067    l-2.537-1.058v-21.021c7.973-0.378,9.88-11.341,2.537-14.399l-2.537-1.058v-21.022c7.973-0.377,9.88-11.34,2.537-14.399    l-2.537-1.058v-23.798c13.278,0,21.064-9.607,21.064-19.827v-8.258h6.879c10.934,0,19.827-8.895,19.827-19.827v-47.769    C367.001,243.061,361.339,235.655,353.507,233.005z M256.257,494.316l-47.228-43.291l64.936,27.058L256.257,494.316z     M286.153,466.912l-77.869-32.448v-20.229l93.042,38.769L286.153,466.912z M304.232,401.487l-11.744-4.893    c-3.822-1.596-8.215,0.214-9.808,4.038c-1.594,3.822,0.214,8.214,4.037,9.807l17.513,7.298v20.228l-95.946-39.979v-20.229    l56.457,23.526c3.816,1.592,8.212-0.209,9.808-4.038c1.594-3.823-0.215-8.215-4.038-9.808l-62.226-25.931V347.46h14.84    l81.107,33.798V401.487z M262.119,347.459h42.112v17.549L262.119,347.459z M325.295,327.631c0,2.662-2.166,4.828-4.828,4.828    c-1.38,0-126.435,0-128.418,0c-2.662,0-4.828-2.166-4.828-4.828v-8.258h138.074V327.631z M352.001,299.546    c0,2.662-2.166,4.828-4.828,4.828c-6.982,0-167.255,0-181.829,0c-2.662,0-4.828-2.166-4.828-4.828v-47.769    c0-2.663,2.166-4.829,4.828-4.829c1.269,0,127.656,0,128.438,0c4.143,0,7.5-3.358,7.5-7.5c0-4.142-3.357-7.5-7.5-7.5H174.078    c0.251-4.239,0.646-8.448,1.181-12.582c0.36-2.781-0.86-5.53-3.165-7.127c-39.389-27.303-58.489-77.877-51.639-121.213    C130.878,24.07,195.62-5.989,252.111,31.489c2.513,1.667,5.778,1.667,8.293,0.001c23.843-15.818,53.139-21.568,80.031-10.745    c70.096,28.216,70.783,142.416-0.014,191.495c-2.305,1.598-3.525,4.348-3.164,7.129c0.535,4.126,0.931,8.335,1.182,12.58h-19.656    c-4.143,0-7.5,3.358-7.5,7.5c0,4.142,3.357,7.5,7.5,7.5c0.001,0,28.39,0,28.391,0c2.662,0,4.828,2.166,4.828,4.829V299.546z"/>
	</g>
</g>
<g>
</g>
<g>
</g>
<g>
</g>
<g>
</g>
<g>
</g>
<g>
</g>
<g>
</g>
<g>
</g>
<g>
</g>
<g>
</g>
<g>
</g>
<g>
</g>
<g>
</g>
<g>
</g>
<g>
</g>
</svg>
