<?xml version="1.0" encoding="iso-8859-1"?>
<!-- Generator: Adobe Illustrator 19.0.0, SVG Export Plug-In . SVG Version: 6.00 Build 0)  -->
<svg xmlns="http://www.w3.org/2000/svg" xmlns:xlink="http://www.w3.org/1999/xlink" version="1.1" id="Layer_1" x="0px" y="0px" viewBox="0 0 512.001 512.001" style="enable-background:new 0 0 512.001 512.001;" xml:space="preserve">
<g>
	<g>
		<path d="M457.791,117.756C441.311,13.544,340.677-29.991,256.094,22.408c-85.28-52.958-185.296-8.413-201.705,95.347    c-11.006,60.942,16.546,137,73.736,179.15c-9.703,86.855,26.228,172.637,55.934,170.149c13.832,0,16.775,0.536,22.14-1.609    c0.007,0.183,0.397,10.213,0.411,10.395c0.265,3.888,3.101,36.161,24.061,36.161h50.841c11.605,0,17.647-9.892,20.78-19.382    c12.102,2.829,13.858-12.168,4.728-14.301l-1.635-0.382c0.242-2.289,0.165-1.396,0.599-12.489    c2.749,1.099,5.942,1.607,7.616,1.607c16.361,0,15.808,0.057,15.808,0.057c29.371,0,64.224-84.511,54.648-170.204    c18.896-13.928,34.728-31.504,47.104-51.683c2.165-3.531,1.059-8.149-2.473-10.315c-3.533-2.165-8.149-1.058-10.316,2.473    c-12.719,20.743-29.064,37.71-46.567,49.848c-2.304,1.598-3.525,4.347-3.164,7.127c11.224,86.616-24.95,156.169-39.014,157.739    c-0.004-0.006-0.681-0.042-15.701-0.042c-2.209-0.225-3.751-1.2-4.814-2.588c9.867,2.337,13.036-12.36,3.49-14.59l-5.374-1.255    l1.137-29.074c11.242,2.62,13.493-12.254,4.237-14.416l-3.641-0.851l1.137-29.078l3.373,0.788c4.051,0.944,8.07-1.578,9.01-5.598    c0.941-4.034-1.564-8.067-5.598-9.01l-6.189-1.445l1.136-29.076c1.725,0.402,2.298,0.581,3.353,0.581    c3.405,0,6.488-2.337,7.297-5.796c0.941-4.034-1.564-8.067-5.598-9.01l-4.456-1.04c0.389-9.929,0.49-10.669,0.241-14.012    c-2.027-27.434-24.939-48.979-52.793-48.979c-0.87,0-6.711,0-7.57,0c-23.341,0-43.705,15.267-50.536,37.144l-6.113-1.428    c-4.033-0.938-8.066,1.564-9.01,5.598c-0.941,4.034,1.564,8.067,5.598,9.01l7.142,1.668c-0.03,1.616-0.159-2.537,1.097,29.597    l-4.826-1.128c-4.033-0.94-8.066,1.563-9.01,5.598c-0.941,4.034,1.564,8.067,5.598,9.01l8.847,2.066l1.158,29.622    c-3.971-0.823-7.896,1.659-8.823,5.632c-0.941,4.033,1.564,8.067,5.598,9.01l3.833,0.896l1.155,29.609    c-12.461-2.907-14.112,12.109-4.99,14.24l5.598,1.308l0.612,15.655c0.059,4.884-1.121,10.743-6.977,11.339    c-15.349,0-15.794,0.141-16.794-0.28c-16.43-6.809-48.583-75.129-37.92-157.417c0.36-2.78-0.86-5.529-3.164-7.127    C77.749,243.8,48.995,154.147,79.641,84.045v0.001c30.098-68.521,106.824-89.939,172.3-46.478c2.514,1.668,5.782,1.668,8.294,0    c73.459-48.732,165.889-16.494,182.779,82.778c4.812,26.529,1.131,63.125-13.868,96.605c-1.694,3.78-0.004,8.218,3.776,9.912    c3.778,1.693,8.218,0.005,9.912-3.776C459.057,186.907,463.112,147.203,457.791,117.756z M281.511,496.999H230.67    c-4.791,0-8.782-14.296-9.135-23.242l66.046,15.426C285.956,493.656,283.827,496.999,281.511,496.999z M290.616,474.486    l-69.689-16.277l-1.157-29.611l71.983,16.813L290.616,474.486z M292.349,430.146l-73.187-17.095l-1.157-29.611l75.481,17.632    L292.349,430.146z M294.083,385.805l-76.685-17.913l-1.158-29.612l78.98,18.447L294.083,385.805z M250.247,252.663    c1.328-0.073,1.321-0.056,9.63-0.056c20.816,0,37.858,16.823,37.936,37.796l-0.263,6.718l-81.096-18.941    C221.558,263.373,235.047,253.487,250.247,252.663z M296.953,312.386l-1.137,29.076l-80.184-18.73l-1.157-29.61L296.953,312.386z"/>
	</g>
</g>
<g>
</g>
<g>
</g>
<g>
</g>
<g>
</g>
<g>
</g>
<g>
</g>
<g>
</g>
<g>
</g>
<g>
</g>
<g>
</g>
<g>
</g>
<g>
</g>
<g>
</g>
<g>
</g>
<g>
</g>
</svg>
