<?xml version="1.0" encoding="iso-8859-1"?>
<!-- Generator: Adobe Illustrator 19.0.0, SVG Export Plug-In . SVG Version: 6.00 Build 0)  -->
<svg xmlns="http://www.w3.org/2000/svg" xmlns:xlink="http://www.w3.org/1999/xlink" version="1.1" id="Layer_1" x="0px" y="0px" viewBox="0 0 512 512" style="enable-background:new 0 0 512 512;" xml:space="preserve">
<g>
	<g>
		<path d="M445.974,126.361h-40.443c-4.143,0-7.5,3.357-7.5,7.5c0,4.143,3.357,7.5,7.5,7.5h40.443    c28.136,0,51.025,22.89,51.025,51.024v44.39c0,15.325-6.705,29.418-18.061,38.971c-8.718-89.518-117.021-109.052-150.844-28.132    c-28.06-67.666-115.122-69.093-144.003,0.452c-34.068-82.527-142.244-60.858-151.03,27.68C21.705,266.195,15,252.103,15,236.777    v-44.39c0-28.136,22.89-51.024,51.023-51.024h313.839c4.143,0,7.5-3.357,7.5-7.5s-3.357-7.5-7.5-7.5H66.024    C29.618,126.361,0,155.981,0,192.387v44.39c0,23.687,12.371,45.091,32.588,56.933v13.786h-4.015c-4.143,0-7.5,3.357-7.5,7.5    s3.357,7.5,7.5,7.5h4.015v18.271c0,24.742,21.086,44.871,47.003,44.871h34.931c4.143,0,7.5-3.357,7.5-7.5s-3.357-7.5-7.5-7.5    H79.591c-17.646,0-32.003-13.399-32.003-29.871v-18.271h41.549c7.234,21.902,38.3,21.892,45.53,0h41.736v18.271    c0,16.471-14.356,29.871-32.003,29.871h-3.879c-4.143,0-7.5,3.357-7.5,7.5s3.357,7.5,7.5,7.5h3.879    c16.68,0,31.346-8.343,39.69-20.881c8.345,12.537,23.012,20.881,39.689,20.881h64.812c16.554,0,31.126-8.22,39.502-20.602    c8.376,12.381,22.949,20.602,39.503,20.602h64.812c25.917,0,47.002-20.13,47.002-44.871v-18.271h4.232c4.143,0,7.5-3.357,7.5-7.5    s-3.357-7.5-7.5-7.5h-4.232V293.71C499.629,281.869,512,260.464,512,236.777v-44.39C512,155.981,482.381,126.361,445.974,126.361z     M111.902,323.969c-4.412,0-8.082-3.204-8.826-7.406c0.221-1.04,0.221-2.092,0-3.133c0.744-4.201,4.414-7.404,8.826-7.404    c4.947,0,8.973,4.024,8.973,8.971S116.85,323.969,111.902,323.969z M176.404,307.495h-41.736c-7.235-21.901-38.299-21.888-45.53,0    H47.588c0-13.006,0-8.938,0-21.965c0-41.023,28.894-74.399,64.408-74.399c35.514,0,64.408,33.376,64.408,74.399    C176.404,293.984,176.404,299.293,176.404,307.495z M320.594,340.767c0.001,16.471-14.355,29.871-32.001,29.871h-64.812    c-17.646,0-32.002-13.399-32.002-29.871v-18.271h41.455c7.234,21.902,38.298,21.892,45.528,0h41.831V340.767z M247.027,314.996    c0-4.946,4.024-8.971,8.972-8.971c4.947,0.001,8.972,4.025,8.972,8.971c0,4.947-4.024,8.973-8.972,8.973    C251.052,323.969,247.027,319.944,247.027,314.996z M320.595,307.495h-41.831c-7.235-21.9-38.298-21.888-45.528,0H191.78    c0-8.196,0-13.515,0-21.965c0-41.023,28.893-74.399,64.407-74.399s64.408,33.376,64.408,74.399V307.495z M464.411,340.767    c0,16.471-14.355,29.871-32.002,29.871h-64.812c-17.646,0-32.003-13.399-32.003-29.871v-18.271c0.586,0,41.05,0.021,41.631-0.038    c7.198,21.918,38.3,21.963,45.542,0.038h41.643V340.767z M391.032,314.996c0-4.946,4.024-8.971,8.972-8.971    c4.947,0,8.973,4.024,8.973,8.971s-4.025,8.973-8.973,8.973S391.032,319.944,391.032,314.996z M464.411,307.495h-41.642v0    c-7.236-21.903-38.338-21.897-45.542,0.038c-0.581-0.059-41.044-0.038-41.631-0.038v-21.965c0-41.023,28.893-74.399,64.407-74.399    c32.266,0,64.409,28.344,64.409,78.107V307.495z"/>
	</g>
</g>
<g>
</g>
<g>
</g>
<g>
</g>
<g>
</g>
<g>
</g>
<g>
</g>
<g>
</g>
<g>
</g>
<g>
</g>
<g>
</g>
<g>
</g>
<g>
</g>
<g>
</g>
<g>
</g>
<g>
</g>
</svg>
