<?xml version="1.0" encoding="iso-8859-1"?>
<!-- Generator: Adobe Illustrator 19.0.0, SVG Export Plug-In . SVG Version: 6.00 Build 0)  -->
<svg xmlns="http://www.w3.org/2000/svg" xmlns:xlink="http://www.w3.org/1999/xlink" version="1.1" id="Layer_1" x="0px" y="0px" viewBox="0 0 512 512" style="enable-background:new 0 0 512 512;" xml:space="preserve">
<g>
	<g>
		<g>
			<path d="M400.311,136.025C415.558,70.739,365.696,8.321,298.956,8.321c-48.589,0-89.767,33.525-101.049,79.164     c-16.158,65.865,33.924,128.968,101.049,128.968C347.806,216.453,389.49,182.445,400.311,136.025z M298.956,23.315     c37.511,0,69.679,23.31,82.784,56.205H216.168C229.274,46.625,261.443,23.315,298.956,23.315z M216.168,145.254h117.837     c4.141,0,7.497-3.356,7.497-7.497c0-4.141-3.356-7.497-7.497-7.497H211.683c-2.399-11.701-2.405-23.928,0.001-35.747h174.541     c2.501,12.402,2.314,24.088,0,35.747h-26.231c-4.141,0-7.497,3.356-7.497,7.497c0,4.141,3.356,7.497,7.497,7.497h21.747     c-13.106,32.895-45.275,56.205-82.786,56.205C261.443,201.459,229.274,178.149,216.168,145.254z"/>
			<path d="M13.773,243.744c-39.538,69.382,10.818,155.615,90.402,155.621c57.556-0.001,104.069-46.685,104.069-104.067     C208.242,188.196,64.185,151.504,13.773,243.744z M153.251,369.647l-22.889-22.888c-2.928-2.927-7.675-2.927-10.602,0     c-2.928,2.929-2.928,7.675,0,10.603l19.736,19.736C65.777,408.947-9.398,333.996,22.415,260.017l80.01,80.009     c2.928,2.927,7.675,2.927,10.602,0c2.928-2.929,2.928-7.675,0-10.603l-83.197-83.197c6.593-9.98,15.212-18.622,25.275-25.28     l123.423,123.427C172.076,354.128,163.471,362.889,153.251,369.647z M185.977,330.617L68.859,213.497     C142.404,181.72,218.004,256.484,185.977,330.617z"/>
			<path d="M440.803,224.488c-19.031,0-36.922,7.442-50.321,20.841l-136.87,136.872c-44.99,44.989-12.532,121.479,50.322,121.479     c19.008,0,36.878-7.401,50.319-20.841l70.821-70.822l66.048-66.049C536.026,301.064,503.536,224.488,440.803,224.488z      M480.521,335.365l-60.747,60.748l-13.871-13.872c-2.929-2.927-7.675-2.927-10.603,0c-2.928,2.929-2.928,7.675,0,10.603     l13.872,13.871l-65.519,65.521c-10.608,10.608-24.714,16.449-39.716,16.449c-49.612,0-75.23-60.379-39.719-95.882l65.521-65.522     l48.402,48.402c2.929,2.927,7.675,2.927,10.603,0c2.928-2.929,2.928-7.675,0-10.603l-48.402-48.401l60.746-60.747     c21.405-21.405,55.52-21.685,77.362-1.973C502.382,275.605,503.207,312.681,480.521,335.365z"/>
		</g>
	</g>
</g>
<g>
</g>
<g>
</g>
<g>
</g>
<g>
</g>
<g>
</g>
<g>
</g>
<g>
</g>
<g>
</g>
<g>
</g>
<g>
</g>
<g>
</g>
<g>
</g>
<g>
</g>
<g>
</g>
<g>
</g>
</svg>
