<?xml version="1.0" encoding="iso-8859-1"?>
<!-- Generator: Adobe Illustrator 19.0.0, SVG Export Plug-In . SVG Version: 6.00 Build 0)  -->
<svg xmlns="http://www.w3.org/2000/svg" xmlns:xlink="http://www.w3.org/1999/xlink" version="1.1" id="Layer_1" x="0px" y="0px" viewBox="0 0 511.999 511.999" style="enable-background:new 0 0 511.999 511.999;" xml:space="preserve">
<g>
	<g>
		<g>
			<path d="M262.141,231.501v-16.986c0-4.143-3.357-7.5-7.5-7.5c-4.143,0-7.5,3.357-7.5,7.5v16.986c0,4.143,3.357,7.5,7.5,7.5     C258.784,239.001,262.141,235.644,262.141,231.501z"/>
			<circle cx="296.842" cy="209.332" r="9.05"/>
			<path d="M324.497,189.255c1.132-3.984-1.182-8.132-5.166-9.264c-19.524-5.544-36.726,1.59-37.448,1.896     c-3.801,1.612-5.568,5.986-3.975,9.795c1.203,2.872,3.994,4.6,6.931,4.6c0.957,0,1.931-0.184,2.868-0.571     c0.131-0.054,13.228-5.35,27.526-1.289C319.211,195.548,323.364,193.239,324.497,189.255z"/>
			<circle cx="212.442" cy="209.332" r="9.05"/>
			<path d="M224.474,196.294c2.92,0,5.696-1.717,6.908-4.574c1.616-3.813-0.164-8.216-3.978-9.833     c-0.722-0.305-17.925-7.44-37.45-1.896c-3.984,1.132-6.298,5.279-5.166,9.264c1.133,3.984,5.282,6.3,9.264,5.166     c14.217-4.038,27.247,1.174,27.524,1.288C222.524,196.106,223.506,196.294,224.474,196.294z"/>
			<path d="M359.815,342.373h-58.386v-17.111c7.92-4.086,15.344-9.207,22.049-15.328c3.059-2.792,3.275-7.536,0.482-10.596     c-2.792-3.059-7.535-3.274-10.596-0.482c-6.984,6.375-14.87,11.502-23.341,15.266c-0.126,0.057-0.253,0.112-0.379,0.168     c-8.469,3.715-17.515,6.072-26.827,6.943c-0.038,0.004-0.076,0.008-0.114,0.011c-1.279,0.118-2.565,0.206-3.853,0.269     c-0.13,0.006-0.26,0.01-0.389,0.016c-1.27,0.055-2.543,0.088-3.82,0.088h-0.002c-1.389,0-2.771-0.037-4.15-0.102     c-0.096-0.004-0.193-0.006-0.289-0.011c-1.264-0.063-2.521-0.161-3.775-0.278c-0.226-0.02-0.452-0.037-0.678-0.059     c-1.123-0.114-2.241-0.259-3.356-0.415c-0.429-0.061-0.858-0.121-1.286-0.188c-0.92-0.144-1.836-0.308-2.751-0.48     c-0.623-0.118-1.244-0.242-1.863-0.374c-0.728-0.154-1.452-0.319-2.176-0.493c-0.777-0.186-1.55-0.383-2.319-0.591     c-0.572-0.153-1.145-0.314-1.715-0.479c-0.887-0.259-1.768-0.532-2.643-0.818c-0.449-0.147-0.897-0.295-1.345-0.449     c-0.997-0.344-1.984-0.707-2.965-1.086c-0.304-0.117-0.607-0.234-0.91-0.354c-32.137-12.839-54.904-44.284-54.904-80.949v-0.883     v-53.647v-18.455c0.195,0.03,0.393,0.051,0.588,0.08c1.334,0.2,2.672,0.38,4.012,0.544c0.98,0.122,1.963,0.23,2.946,0.331     c0.704,0.072,1.407,0.143,2.112,0.205c4.559,0.411,9.143,0.643,13.733,0.643c53.643,0,96.441-27.482,112.811-39.694     c0.063,0.098,0.127,0.192,0.189,0.29c0.336,0.524,0.674,1.047,1.016,1.558c0.076,0.113,0.152,0.221,0.228,0.333     c0.332,0.491,0.664,0.981,1.001,1.46c0.075,0.105,0.15,0.207,0.226,0.313c0.34,0.479,0.68,0.956,1.024,1.422     c0.052,0.07,0.104,0.138,0.156,0.208c0.368,0.496,0.737,0.987,1.109,1.469c0.065,0.083,0.13,0.163,0.195,0.247     c0.36,0.463,0.722,0.923,1.086,1.373c0.086,0.105,0.173,0.207,0.259,0.312c0.344,0.421,0.688,0.841,1.034,1.251     c0.131,0.154,0.263,0.303,0.395,0.456c0.304,0.354,0.607,0.709,0.911,1.054c0.105,0.119,0.211,0.233,0.317,0.351     c0.331,0.371,0.662,0.742,0.995,1.103c0.119,0.13,0.24,0.254,0.359,0.382c0.32,0.344,0.64,0.687,0.96,1.021     c0.105,0.108,0.209,0.212,0.314,0.319c0.336,0.346,0.672,0.691,1.008,1.028c0.182,0.181,0.363,0.354,0.544,0.533     c0.259,0.255,0.519,0.513,0.777,0.762c0.313,0.3,0.625,0.591,0.936,0.883c0.128,0.119,0.256,0.243,0.384,0.361     c0.323,0.298,0.645,0.587,0.966,0.876c0.118,0.105,0.236,0.215,0.353,0.32c0.31,0.274,0.618,0.541,0.926,0.808     c0.129,0.111,0.259,0.228,0.388,0.338c0.853,0.729,1.699,1.427,2.538,2.097c0.02,0.016,0.04,0.032,0.06,0.048     c5.97,4.749,11.526,7.975,15.635,10.027c0.03,0.015,0.063,0.032,0.092,0.046c0.022,0.012,0.042,0.021,0.063,0.031     c0.565,0.281,1.103,0.54,1.607,0.776v22.491v53.646v0.883c0,16.538-4.651,32.629-13.45,46.532     c-2.216,3.5-1.174,8.133,2.326,10.348c3.498,2.216,8.133,1.176,10.348-2.326c9.284-14.668,14.616-31.407,15.597-48.73     c15.009-3.274,26.374-16.393,26.969-32.228c0.574-1.06,0.9-2.273,0.9-3.564v-84.101c0-0.415-0.033-0.821-0.099-1.218     c0.45-12.672-0.392-30.548-6.484-46.629c-7.895-20.84-22.704-33.078-42.976-35.603C319.963,12.761,291.776,0,253.067,0     c-14.129,0-26.799,1.742-34.941,3.203l-0.949,0.176c-0.039,0.007-0.077,0.015-0.116,0.022     c-4.758,0.939-21.674,4.886-39.549,16.188c-23.1,14.605-38.854,36.04-45.56,61.991c-0.025,0.097-0.048,0.195-0.069,0.293     c-2.457,11.38-3.885,24.199-4.244,38.106c-0.009,0.145-0.013,0.291-0.013,0.438v0.01c-0.058,2.383-0.086,4.601-0.086,6.777     c0,0.383,0.029,0.759,0.086,1.125v67.105c-1.249,3.554-1.936,7.37-1.936,11.345c0,16.41,11.579,30.16,26.995,33.528     c2.148,38.058,25.228,70.61,57.885,86.297v15.768h-58.386c-40.678,0-73.772,33.094-73.772,73.773v75.731     c0,11.096,9.026,20.123,20.122,20.123h0.003h44.557h34.507c4.143,0,7.5-3.357,7.5-7.5c0-4.143-3.357-7.5-7.5-7.5h-27.008V467.05     v-20.408c0-4.143-3.357-7.5-7.5-7.5c-4.143,0-7.5,3.357-7.5,7.5v12.908H93.411v-43.404c0-32.406,26.365-58.773,58.772-58.773     h59.06c3.698,21.357,22.403,37.689,44.756,37.689s41.059-16.333,44.755-37.689h59.062c32.407,0,58.773,26.365,58.773,58.773     v43.404h-42.179v-12.908c0-4.143-3.357-7.5-7.5-7.5s-7.5,3.357-7.5,7.5v20.408v29.949H204.047c-4.143,0-7.5,3.357-7.5,7.5     c0,4.143,3.357,7.5,7.5,7.5h164.861h44.557c11.096,0,20.122-9.027,20.122-20.123V467.05v-50.904     C433.588,375.468,400.494,342.373,359.815,342.373z M356.77,224.59v-35.579c5.299,2.265,9.446,6.828,11.068,12.459     c0.017,0.059,0.032,0.119,0.049,0.178c0.137,0.494,0.252,0.995,0.35,1.504c0.017,0.09,0.035,0.179,0.052,0.268     c0.1,0.567,0.18,1.141,0.229,1.724c0.002,0.026,0.008,0.052,0.011,0.078c0.041,0.515,0.065,1.033,0.065,1.559     C368.592,214.777,363.71,221.655,356.77,224.59z M152.515,224.589c-6.942-2.933-11.826-9.812-11.826-17.809     c0-2.729,0.58-5.32,1.605-7.676c0.111-0.257,0.221-0.516,0.342-0.766c0.161-0.33,0.334-0.651,0.514-0.971     c0.042-0.076,0.08-0.154,0.123-0.229c2.101-3.631,5.347-6.52,9.242-8.166V224.589z M165.205,145.88     c-1.198-0.229-2.392-0.475-3.58-0.735c-2.219-0.489-4.539,0.057-6.31,1.48c-1.77,1.424-2.8,3.573-2.8,5.845v20.803     c-0.203,0.045-0.398,0.109-0.6,0.158c-0.385,0.093-0.767,0.194-1.146,0.301c-0.761,0.211-1.51,0.449-2.25,0.711     c-0.117,0.042-0.237,0.08-0.354,0.123c-1.926,0.705-3.785,1.558-5.54,2.587v-49.948c0-0.377-0.028-0.747-0.083-1.108     c0.007-1.716,0.034-3.477,0.08-5.348c0.002-0.048,0.003-0.096,0.005-0.145c0.323-13.006,1.631-24.92,3.885-35.416     c13.979-53.745,67.207-65.831,73.422-67.065l0.844-0.156c7.541-1.354,19.266-2.967,32.29-2.967     c24.201,0,56.111,5.663,70.687,32.644c1.235,2.286,3.565,3.771,6.159,3.923c38.244,2.244,40.295,48.661,39.401,68.515     c-0.028,0.624,0.022,1.244,0.146,1.846v57.121c-3.733-2.725-8.033-4.712-12.689-5.754v-20.823c0-3.233-2.072-6.103-5.142-7.119     c-0.038-0.013-0.671-0.229-1.765-0.691c-0.438-0.185-0.949-0.408-1.525-0.675c-0.289-0.134-0.594-0.277-0.913-0.432     c-7.681-3.71-24.169-13.682-34.849-34.651c-0.92-1.805-2.523-3.15-4.434-3.75c-0.273-0.086-0.553-0.156-0.837-0.211     c-2.27-0.438-4.621,0.202-6.361,1.729c-0.009,0.007-0.034,0.029-0.064,0.056c-0.009,0.008-0.024,0.021-0.035,0.03     c-0.035,0.03-0.076,0.065-0.129,0.109c-0.009,0.008-0.021,0.018-0.03,0.026c-0.065,0.055-0.142,0.119-0.231,0.194     c0,0-0.007,0.005-0.009,0.008c-5.5,4.598-55.392,44.656-117.868,40.95c-0.129-0.008-0.258-0.018-0.387-0.026     c-0.982-0.062-1.966-0.132-2.953-0.214c-0.369-0.032-0.736-0.07-1.105-0.104c-0.771-0.071-1.544-0.143-2.318-0.228     c-0.628-0.069-1.253-0.15-1.88-0.229c-0.536-0.066-1.072-0.127-1.61-0.2c-0.877-0.12-1.751-0.255-2.625-0.392     c-0.307-0.048-0.612-0.088-0.919-0.139c-1.064-0.174-2.125-0.364-3.184-0.563C165.467,145.925,165.336,145.905,165.205,145.88z      M93.413,474.551h42.18V497H98.536c-2.825,0-5.123-2.298-5.123-5.123V474.551z M286.425,349.55     c-0.001,0.093-0.003,0.184-0.004,0.276c-0.103,16.673-13.751,30.236-30.423,30.236c-16.672,0-30.32-13.563-30.424-30.236     c-0.001-0.056-0.003-0.112-0.004-0.168V332.42c2.755,0.818,5.544,1.502,8.356,2.082c0.164,0.034,0.33,0.066,0.494,0.1     c1.364,0.273,2.734,0.521,4.109,0.738c0.221,0.035,0.439,0.074,0.66,0.107c0.604,0.092,1.209,0.175,1.814,0.256     c0.487,0.064,0.975,0.125,1.465,0.184c0.52,0.063,1.04,0.126,1.563,0.18c0.962,0.1,1.928,0.187,2.898,0.259     c0.346,0.026,0.692,0.044,1.038,0.066c0.787,0.051,1.576,0.094,2.368,0.126c0.341,0.015,0.683,0.029,1.023,0.039     c1.089,0.035,2.181,0.059,3.278,0.059h0.002h0.001c1.513,0,3.019-0.04,4.52-0.104c0.358-0.016,0.715-0.044,1.072-0.064     c1.184-0.063,2.364-0.143,3.54-0.246c0.332-0.029,0.662-0.064,0.993-0.098c1.247-0.121,2.489-0.266,3.727-0.434     c0.232-0.031,0.463-0.063,0.693-0.096c1.408-0.2,2.81-0.429,4.207-0.688c0.063-0.012,0.127-0.022,0.189-0.034     c4.348-0.816,8.636-1.898,12.845-3.279V349.55z M413.466,497h-37.057v-22.449h42.179v17.326h0     C418.588,494.702,416.29,497,413.466,497z"/>
			<path d="M223.981,289.372c0.057,0.05,0.103,0.107,0.161,0.155c1.712,1.391,3.516,2.652,5.391,3.788     c0.049,0.03,0.099,0.058,0.148,0.087c0.551,0.332,1.107,0.653,1.671,0.963c0.251,0.139,0.506,0.27,0.76,0.404     c0.355,0.186,0.711,0.371,1.07,0.549c0.372,0.185,0.748,0.363,1.126,0.539c0.231,0.107,0.463,0.213,0.696,0.316     c0.472,0.209,0.944,0.414,1.424,0.609c0.109,0.044,0.22,0.086,0.329,0.129c2.985,1.192,6.115,2.094,9.357,2.672     c0.156,0.028,0.313,0.058,0.469,0.084c0.496,0.084,0.993,0.158,1.492,0.227c0.278,0.038,0.557,0.072,0.836,0.106     c0.421,0.05,0.842,0.098,1.267,0.137c0.408,0.038,0.817,0.065,1.228,0.094c0.321,0.022,0.642,0.048,0.965,0.063     c0.756,0.036,1.512,0.058,2.27,0.058s1.515-0.022,2.27-0.058c0.325-0.015,0.647-0.042,0.97-0.063     c0.408-0.027,0.814-0.055,1.221-0.093c0.428-0.039,0.852-0.087,1.276-0.138c0.273-0.033,0.547-0.066,0.819-0.105     c0.506-0.069,1.01-0.145,1.51-0.228c0.147-0.025,0.294-0.053,0.44-0.079c3.266-0.582,6.417-1.49,9.423-2.693     c0.086-0.034,0.173-0.067,0.26-0.102c0.497-0.203,0.989-0.415,1.479-0.634c0.213-0.094,0.424-0.189,0.634-0.287     c0.397-0.184,0.79-0.371,1.181-0.565c0.338-0.167,0.674-0.342,1.008-0.517c0.272-0.144,0.547-0.286,0.816-0.435     c0.541-0.297,1.076-0.606,1.605-0.924c0.069-0.042,0.141-0.081,0.209-0.123c1.869-1.135,3.67-2.393,5.378-3.78     c0.06-0.048,0.105-0.107,0.163-0.157c10.824-8.885,17.743-22.361,17.743-37.426c0-4.143-3.357-7.5-7.5-7.5h-81.81     c-4.143,0-7.5,3.357-7.5,7.5C206.236,267.01,213.156,280.487,223.981,289.372z M261.924,284.551     c-0.077,0.017-0.155,0.032-0.233,0.049c-0.653,0.141-1.315,0.259-1.982,0.36c-0.25,0.038-0.499,0.081-0.75,0.112     c-0.261,0.034-0.524,0.059-0.787,0.086c-0.367,0.039-0.736,0.073-1.107,0.1c-0.211,0.015-0.422,0.029-0.634,0.041     c-0.594,0.031-1.19,0.053-1.79,0.053c-0.6,0-1.195-0.022-1.789-0.053c-0.214-0.012-0.425-0.026-0.638-0.042     c-0.368-0.026-0.734-0.06-1.1-0.098c-0.266-0.028-0.531-0.053-0.795-0.087c-0.235-0.03-0.469-0.07-0.703-0.105     c-0.688-0.104-1.371-0.225-2.045-0.371c-0.068-0.015-0.137-0.028-0.205-0.043c-2.866-0.64-5.592-1.65-8.13-2.976     c3.913-4.231,9.485-6.767,15.403-6.767c5.918,0,11.492,2.535,15.404,6.768C267.509,282.901,264.787,283.911,261.924,284.551z      M287.197,259.445c-1.05,4.559-3.038,8.761-5.745,12.399c-6.728-7.513-16.461-12.034-26.811-12.034     c-10.352,0-20.083,4.522-26.811,12.033c-2.706-3.637-4.694-7.84-5.744-12.398H287.197z"/>
		</g>
	</g>
</g>
<g>
</g>
<g>
</g>
<g>
</g>
<g>
</g>
<g>
</g>
<g>
</g>
<g>
</g>
<g>
</g>
<g>
</g>
<g>
</g>
<g>
</g>
<g>
</g>
<g>
</g>
<g>
</g>
<g>
</g>
</svg>
