<?xml version="1.0" encoding="iso-8859-1"?>
<!-- Generator: Adobe Illustrator 19.0.0, SVG Export Plug-In . SVG Version: 6.00 Build 0)  -->
<svg xmlns="http://www.w3.org/2000/svg" xmlns:xlink="http://www.w3.org/1999/xlink" version="1.1" id="Layer_1" x="0px" y="0px" viewBox="0 0 512.001 512.001" style="enable-background:new 0 0 512.001 512.001;" xml:space="preserve">
<g>
	<g>
		<g>
			<path d="M262.142,229.385v-16.987c0-4.143-3.357-7.5-7.5-7.5c-4.143,0-7.5,3.357-7.5,7.5v16.987c0,4.143,3.357,7.5,7.5,7.5     C258.785,236.885,262.142,233.528,262.142,229.385z"/>
			<circle cx="296.836" cy="213.561" r="9.05"/>
			<path d="M316.99,201.595c2.812,0,5.509-1.59,6.788-4.302c1.768-3.746,0.163-8.216-3.583-9.984     c-18.357-8.66-36.494-4.433-37.257-4.247c-4.014,0.969-6.472,4.996-5.521,9.015c0.95,4.016,4.982,6.511,9.01,5.574     c0.137-0.031,13.923-3.118,27.366,3.226C314.829,201.363,315.917,201.595,316.99,201.595z"/>
			<circle cx="212.821" cy="213.561" r="9.05"/>
			<path d="M223.226,197.649c4.025,0.955,8.053-1.521,9.023-5.536c0.973-4.026-1.503-8.079-5.529-9.051     c-0.762-0.185-18.897-4.414-37.257,4.247c-3.746,1.768-5.351,6.237-3.583,9.984c1.28,2.712,3.976,4.302,6.788,4.302     c1.072,0,2.161-0.232,3.195-0.719C209.212,194.577,222.894,197.573,223.226,197.649z"/>
			<path d="M223.98,289.37c0.057,0.05,0.102,0.108,0.161,0.156c1.713,1.392,3.518,2.653,5.393,3.79     c0.045,0.027,0.091,0.053,0.136,0.08c0.556,0.334,1.116,0.658,1.684,0.97c0.248,0.137,0.5,0.267,0.751,0.399     c0.358,0.189,0.717,0.374,1.08,0.554c0.37,0.184,0.743,0.361,1.118,0.536c0.233,0.108,0.468,0.214,0.703,0.318     c0.47,0.209,0.942,0.413,1.419,0.607c0.111,0.045,0.223,0.087,0.334,0.132c2.984,1.191,6.113,2.092,9.354,2.67     c0.157,0.028,0.313,0.058,0.471,0.084c0.495,0.084,0.992,0.158,1.492,0.227c0.278,0.038,0.557,0.072,0.836,0.107     c0.42,0.05,0.841,0.098,1.265,0.137c0.409,0.038,0.819,0.065,1.23,0.094c0.321,0.022,0.641,0.048,0.964,0.063     c0.755,0.036,1.513,0.058,2.27,0.058c0.758,0,1.515-0.021,2.27-0.058c0.324-0.015,0.645-0.041,0.969-0.063     c0.408-0.028,0.816-0.056,1.223-0.094c0.427-0.039,0.85-0.087,1.273-0.138c0.275-0.033,0.551-0.067,0.825-0.105     c0.504-0.068,1.005-0.143,1.504-0.228c0.15-0.025,0.301-0.054,0.452-0.081c3.254-0.58,6.395-1.484,9.391-2.682     c0.099-0.039,0.197-0.077,0.295-0.117c0.487-0.198,0.97-0.406,1.45-0.62c0.224-0.1,0.446-0.2,0.669-0.303     c0.385-0.179,0.768-0.361,1.148-0.55c0.352-0.174,0.701-0.355,1.05-0.539c0.259-0.137,0.52-0.271,0.775-0.412     c0.56-0.308,1.113-0.627,1.661-0.957c0.052-0.031,0.104-0.06,0.156-0.092c1.873-1.136,3.677-2.396,5.389-3.786     c0.061-0.049,0.106-0.108,0.165-0.159c10.823-8.885,17.74-22.36,17.74-37.424c0-4.143-3.358-7.5-7.5-7.5h-81.81     c-4.143,0-7.5,3.357-7.5,7.5C206.236,267.009,213.155,280.487,223.98,289.37z M261.923,284.55     c-0.076,0.017-0.152,0.032-0.229,0.049c-0.655,0.141-1.319,0.259-1.988,0.361c-0.249,0.037-0.497,0.08-0.747,0.111     c-0.261,0.034-0.524,0.059-0.787,0.086c-0.368,0.039-0.736,0.072-1.107,0.1c-0.211,0.015-0.422,0.029-0.635,0.041     c-0.594,0.031-1.189,0.053-1.789,0.053s-1.194-0.021-1.787-0.053c-0.216-0.012-0.43-0.026-0.643-0.042     c-0.365-0.025-0.727-0.06-1.089-0.097c-0.27-0.028-0.54-0.054-0.808-0.089c-0.213-0.026-0.422-0.064-0.634-0.095     c-0.72-0.107-1.435-0.233-2.139-0.387c-0.054-0.012-0.108-0.022-0.162-0.034c-2.87-0.639-5.601-1.651-8.142-2.978     c3.911-4.231,9.484-6.768,15.402-6.768c5.917,0,11.491,2.535,15.403,6.768C267.508,282.902,264.786,283.912,261.923,284.55z      M287.197,259.446c-1.05,4.559-3.038,8.76-5.744,12.398c-6.729-7.513-16.462-12.035-26.812-12.035     c-10.352,0-20.084,4.523-26.811,12.035c-2.707-3.638-4.694-7.84-5.744-12.398H287.197z"/>
			<path d="M359.816,342.371H301.43v-17.124c6.173-3.176,12.041-6.974,17.477-11.38c3.218-2.607,3.712-7.331,1.104-10.55     c-2.606-3.216-7.328-3.712-10.55-1.104c-14.426,11.692-32.374,18.471-50.917,19.309c-0.141,0.006-0.281,0.011-0.421,0.017     c-1.159,0.047-2.319,0.075-3.481,0.075c-1.323,0-2.642-0.038-3.956-0.097c-0.385-0.017-0.768-0.043-1.151-0.065     c-0.982-0.057-1.961-0.127-2.937-0.217c-0.361-0.032-0.724-0.064-1.085-0.102c-8.451-0.877-16.675-2.967-24.541-6.266     c-0.265-0.111-0.534-0.201-0.806-0.281c-20.914-8.943-37.85-25.94-46.608-48.154c-0.173-0.439-0.339-0.886-0.507-1.332     c-0.028-0.089-0.045-0.181-0.077-0.268l-0.245-0.655c-0.217-0.578-0.436-1.156-0.635-1.746c-0.46-1.358-0.888-2.733-1.273-4.088     c-0.258-0.908-0.498-1.82-0.726-2.736c-0.09-0.36-0.169-0.723-0.254-1.084c-0.13-0.554-0.26-1.106-0.379-1.662     c-0.097-0.449-0.184-0.9-0.272-1.352c-0.092-0.465-0.184-0.93-0.268-1.396c-0.091-0.502-0.175-1.008-0.257-1.513     c-0.067-0.413-0.133-0.826-0.193-1.24c-0.08-0.541-0.155-1.083-0.226-1.626c-0.048-0.375-0.093-0.751-0.136-1.127     c-0.066-0.576-0.131-1.152-0.186-1.73c-0.032-0.335-0.059-0.671-0.087-1.007c-0.051-0.613-0.102-1.227-0.14-1.842     c-0.018-0.276-0.028-0.554-0.043-0.831c-0.036-0.673-0.072-1.346-0.093-2.019c-0.027-0.897-0.046-1.794-0.046-2.692v-0.882     v-48.055c17.429-2.701,62.881-13.443,87.109-53.658c0.082,0.125,0.167,0.246,0.255,0.363     c24.278,39.917,69.511,50.602,86.892,53.295v48.055v0.882c0,0.844-0.02,1.686-0.043,2.528c-0.001,0.008-0.003,0.016-0.003,0.023     c-0.024,0.843-0.063,1.684-0.111,2.523c-0.005,0.085-0.008,0.169-0.013,0.254c-0.046,0.758-0.105,1.514-0.17,2.269     c-0.017,0.196-0.032,0.393-0.051,0.588c-0.064,0.689-0.139,1.377-0.219,2.064c-0.031,0.268-0.063,0.535-0.097,0.802     c-0.08,0.635-0.167,1.269-0.261,1.9c-0.049,0.327-0.101,0.653-0.153,0.979c-0.093,0.58-0.188,1.161-0.293,1.739     c-0.072,0.396-0.15,0.789-0.227,1.183c-0.101,0.516-0.2,1.031-0.311,1.545c-0.107,0.502-0.226,1.002-0.343,1.502     c-0.095,0.408-0.185,0.818-0.286,1.226c-0.228,0.914-0.467,1.825-0.725,2.731c-0.385,1.354-0.813,2.729-1.274,4.095     c-0.002,0.007-0.005,0.014-0.007,0.021c-0.303,0.893-0.626,1.785-0.96,2.673c-0.055,0.146-0.103,0.28-0.159,0.428     c0,0,0,0.001-0.001,0.002c-0.363,0.954-0.742,1.902-1.138,2.837c-2.627,6.211-5.987,12.124-9.989,17.574     c-2.451,3.34-1.731,8.033,1.607,10.485c3.341,2.451,8.033,1.732,10.485-1.607c1.697-2.313,3.293-4.698,4.788-7.143     c1.445,3.345,3.054,6.689,4.819,9.983c10.92,20.365,29.253,40.915,45.596,40.916h0.001c2.985,0,5.766-0.678,8.261-2.016     c4.594-2.463,12.021-9.383,10.143-28.055c-1.164-11.577-5.686-25.19-12.733-38.332c-7.36-13.73-18.095-27.532-29.316-35.072     c8.477-5.796,14.229-15.29,14.924-26.14c0.138-0.566,0.218-1.156,0.218-1.766v-55.247c0.143-0.58,0.229-1.184,0.229-1.808     v-20.947C383.96,57.97,325.991,0,254.736,0c-71.254,0-129.223,57.97-129.223,129.226v20.947c0,0.26,0.014,0.517,0.039,0.77     v56.285c0,0.605,0.079,1.191,0.215,1.755c0.686,10.757,6.344,20.178,14.7,25.989c-11.306,7.506-22.136,21.408-29.55,35.233     c-7.045,13.143-11.566,26.755-12.73,38.332c-1.878,18.673,5.549,25.592,10.143,28.055c2.495,1.337,5.274,2.016,8.261,2.016     c0.001,0,0.001,0,0.002,0c16.343,0,34.675-20.55,45.595-40.916c1.845-3.442,3.518-6.933,5.011-10.424     c7.412,12.284,17.347,22.905,29.323,31.208c4.489,3.112,9.188,5.828,14.048,8.158v15.736h-58.386     c-40.678,0-73.773,33.095-73.773,73.774v50.905v24.826c0,11.097,9.026,20.123,20.122,20.123h44.557h36.864     c4.143,0,7.5-3.357,7.5-7.5c0-4.143-3.357-7.5-7.5-7.5h-29.362v-50.357c0-4.143-3.357-7.5-7.5-7.5s-7.5,3.357-7.5,7.5v12.908     H93.412v-43.404c0-32.407,26.364-58.773,58.772-58.773h59.054c0.074,0.431,0.165,0.856,0.252,1.281     c0.046,0.228,0.084,0.457,0.134,0.683c0.149,0.681,0.314,1.356,0.494,2.026c0.067,0.251,0.146,0.498,0.218,0.747     c0.123,0.429,0.245,0.857,0.38,1.28c0.094,0.29,0.196,0.576,0.295,0.864c0.128,0.376,0.257,0.753,0.395,1.125     c0.111,0.298,0.229,0.592,0.347,0.887c0.141,0.355,0.282,0.71,0.432,1.061c0.127,0.297,0.259,0.591,0.392,0.885     c0.154,0.342,0.311,0.682,0.474,1.02c0.141,0.292,0.284,0.583,0.432,0.872c0.169,0.332,0.343,0.661,0.519,0.988     c0.154,0.284,0.308,0.567,0.467,0.849c0.186,0.326,0.378,0.648,0.571,0.971c0.163,0.271,0.324,0.543,0.493,0.81     c0.207,0.329,0.422,0.652,0.637,0.975c0.168,0.252,0.331,0.506,0.504,0.754c0.246,0.354,0.503,0.701,0.759,1.049     c0.152,0.207,0.3,0.418,0.455,0.622c0.409,0.536,0.83,1.063,1.263,1.58c0.149,0.179,0.307,0.351,0.459,0.526     c0.297,0.346,0.594,0.689,0.901,1.025c0.196,0.215,0.401,0.423,0.602,0.634c0.273,0.288,0.547,0.575,0.827,0.856     c0.218,0.217,0.44,0.428,0.662,0.641c0.276,0.265,0.553,0.528,0.836,0.786c0.23,0.211,0.465,0.417,0.7,0.623     c0.284,0.248,0.569,0.495,0.86,0.736c0.241,0.202,0.485,0.4,0.731,0.597c0.296,0.236,0.594,0.468,0.896,0.696     c0.248,0.188,0.498,0.377,0.751,0.561c0.312,0.227,0.627,0.446,0.943,0.665c0.251,0.174,0.502,0.348,0.757,0.516     c0.335,0.222,0.677,0.435,1.018,0.648c0.245,0.153,0.488,0.309,0.736,0.457c0.386,0.229,0.778,0.449,1.171,0.668     c0.212,0.118,0.42,0.241,0.634,0.356c0.605,0.325,1.217,0.638,1.838,0.936c0.124,0.06,0.252,0.112,0.377,0.17     c0.505,0.237,1.013,0.469,1.527,0.688c0.239,0.101,0.482,0.193,0.724,0.29c0.407,0.165,0.814,0.329,1.228,0.482     c0.27,0.1,0.545,0.192,0.817,0.287c0.392,0.137,0.783,0.272,1.179,0.398c0.286,0.091,0.575,0.175,0.863,0.261     c0.391,0.115,0.781,0.228,1.176,0.332c0.295,0.079,0.592,0.154,0.89,0.227c0.396,0.097,0.794,0.189,1.193,0.274     c0.299,0.064,0.599,0.128,0.899,0.186c0.408,0.08,0.82,0.15,1.233,0.22c0.296,0.049,0.591,0.099,0.889,0.142     c0.431,0.063,0.864,0.114,1.299,0.165c0.284,0.032,0.567,0.069,0.854,0.097c0.482,0.047,0.969,0.079,1.455,0.11     c0.241,0.016,0.48,0.038,0.722,0.05c0.73,0.035,1.465,0.056,2.204,0.056c0.739,0,1.474-0.021,2.204-0.056     c0.242-0.012,0.48-0.034,0.722-0.05c0.486-0.031,0.973-0.064,1.455-0.11c0.286-0.027,0.569-0.065,0.854-0.097     c0.435-0.051,0.868-0.103,1.299-0.165c0.298-0.044,0.593-0.094,0.889-0.142c0.413-0.069,0.825-0.14,1.233-0.22     c0.301-0.059,0.601-0.122,0.899-0.186c0.399-0.086,0.797-0.178,1.193-0.274c0.298-0.072,0.595-0.147,0.89-0.227     c0.395-0.104,0.785-0.217,1.176-0.332c0.288-0.086,0.577-0.17,0.863-0.261c0.396-0.126,0.787-0.261,1.179-0.398     c0.272-0.095,0.547-0.188,0.817-0.287c0.414-0.153,0.823-0.318,1.232-0.482c0.238-0.098,0.48-0.188,0.718-0.289     c0.517-0.219,1.025-0.451,1.531-0.689c0.124-0.058,0.251-0.11,0.374-0.169c0.621-0.298,1.233-0.61,1.838-0.936     c0.213-0.114,0.421-0.237,0.631-0.355c0.395-0.219,0.788-0.439,1.175-0.67c0.247-0.146,0.487-0.302,0.731-0.453     c0.343-0.215,0.686-0.428,1.023-0.65c0.253-0.168,0.502-0.341,0.751-0.514c0.319-0.22,0.637-0.441,0.95-0.669     c0.25-0.183,0.498-0.369,0.745-0.557c0.303-0.229,0.604-0.463,0.9-0.7c0.245-0.195,0.487-0.393,0.729-0.594     c0.291-0.242,0.578-0.49,0.863-0.739c0.233-0.205,0.468-0.41,0.697-0.62c0.284-0.26,0.563-0.525,0.841-0.791     c0.22-0.211,0.44-0.42,0.656-0.635c0.283-0.283,0.559-0.574,0.836-0.865c0.197-0.209,0.399-0.413,0.594-0.625     c0.313-0.343,0.616-0.694,0.92-1.047c0.146-0.169,0.297-0.334,0.439-0.505c0.434-0.519,0.855-1.047,1.266-1.585     c0.15-0.197,0.293-0.4,0.439-0.601c0.262-0.354,0.524-0.708,0.776-1.071c0.168-0.242,0.329-0.491,0.493-0.737     c0.219-0.329,0.438-0.657,0.648-0.991c0.166-0.264,0.324-0.531,0.485-0.798c0.195-0.326,0.391-0.653,0.578-0.984     c0.157-0.276,0.31-0.557,0.461-0.837c0.179-0.332,0.354-0.665,0.525-1.002c0.145-0.285,0.287-0.571,0.426-0.859     c0.165-0.342,0.324-0.687,0.48-1.033c0.131-0.289,0.261-0.579,0.385-0.872c0.152-0.357,0.296-0.716,0.439-1.076     c0.115-0.29,0.232-0.579,0.341-0.873c0.141-0.378,0.272-0.762,0.402-1.145c0.096-0.282,0.196-0.561,0.287-0.845     c0.139-0.435,0.265-0.875,0.391-1.314c0.068-0.238,0.144-0.474,0.208-0.714c0.181-0.672,0.346-1.349,0.496-2.032     c0.047-0.216,0.083-0.434,0.128-0.65c0.088-0.436,0.181-0.87,0.257-1.311h59.054c32.407,0,58.772,26.365,58.772,58.773v43.404     H376.41v-12.908c0-4.143-3.357-7.5-7.5-7.5c-4.143,0-7.5,3.357-7.5,7.5v20.408V497H206.403c-4.143,0-7.5,3.357-7.5,7.5     s3.357,7.5,7.5,7.5h162.507h44.557c11.096,0,20.122-9.026,20.122-20.123v-24.826v-50.905     C433.588,375.466,400.494,342.371,359.816,342.371z M384.686,277.294c6.05,11.284,10.069,23.219,11.027,32.745     c0.847,8.421-0.915,12.588-2.306,13.333c-0.109,0.059-0.44,0.236-1.173,0.236c-5.921,0-20.306-10.49-32.376-33.003     c-3.932-7.336-7-14.886-8.938-21.974c0.167-0.47,0.327-0.932,0.482-1.389c0.538-1.592,1.041-3.207,1.493-4.799     c0.367-1.293,0.701-2.595,1.017-3.901c0.086-0.356,0.163-0.716,0.245-1.073c0.228-0.99,0.442-1.982,0.64-2.979     c0.072-0.363,0.142-0.728,0.21-1.092c0.202-1.078,0.386-2.158,0.552-3.242c0.039-0.25,0.081-0.499,0.117-0.749     c0.2-1.364,0.38-2.732,0.524-4.105C363.26,248.396,374.757,258.776,384.686,277.294z M368.588,206.855     c-0.03,7.964-4.9,14.81-11.819,17.734v-35.597c0.138,0.059,0.278,0.111,0.414,0.173c0.172,0.077,0.342,0.156,0.509,0.238     c0.315,0.153,0.626,0.317,0.932,0.487c0.15,0.083,0.302,0.164,0.449,0.251c0.357,0.212,0.705,0.436,1.047,0.67     c0.084,0.057,0.173,0.109,0.256,0.168c0.425,0.299,0.836,0.615,1.235,0.947c0.085,0.071,0.164,0.148,0.249,0.221     c0.306,0.264,0.605,0.534,0.895,0.816c0.122,0.119,0.239,0.244,0.359,0.367c0.241,0.25,0.478,0.504,0.707,0.766     c0.121,0.139,0.239,0.279,0.356,0.421c0.219,0.266,0.43,0.538,0.635,0.815c0.104,0.142,0.211,0.282,0.311,0.427     c0.222,0.317,0.431,0.644,0.633,0.974c0.068,0.111,0.141,0.219,0.207,0.331c0.264,0.451,0.511,0.913,0.738,1.386     c0.027,0.058,0.05,0.117,0.076,0.176c0.193,0.412,0.373,0.833,0.537,1.262c0.059,0.153,0.11,0.312,0.166,0.468     c0.12,0.341,0.234,0.686,0.336,1.035c0.053,0.18,0.1,0.36,0.147,0.542c0.089,0.342,0.167,0.686,0.237,1.035     c0.036,0.183,0.074,0.365,0.105,0.55c0.064,0.378,0.114,0.761,0.156,1.145c0.017,0.155,0.04,0.309,0.053,0.465     c0.047,0.546,0.075,1.096,0.075,1.653L368.588,206.855z M148.967,290.604c-12.072,22.516-26.454,33.005-32.374,33.004     c-0.734,0-1.065-0.178-1.175-0.236c-1.391-0.745-3.151-4.911-2.305-13.333c0.957-9.525,4.977-21.461,11.025-32.745     c10.138-18.907,21.908-29.332,28.924-32.185c0.143,1.383,0.323,2.761,0.522,4.135c0.042,0.296,0.093,0.591,0.139,0.887     c0.16,1.045,0.336,2.088,0.528,3.127c0.076,0.408,0.154,0.816,0.235,1.224c0.191,0.964,0.398,1.924,0.617,2.882     c0.089,0.39,0.173,0.78,0.267,1.169c0.316,1.31,0.65,2.614,1.018,3.91c0.452,1.592,0.955,3.207,1.493,4.799     c0.014,0.039,0.028,0.078,0.041,0.117c0.06,0.176,0.119,0.35,0.182,0.523C156.18,275.194,153.044,283.001,148.967,290.604z      M140.69,206.749c0.001-0.091,0.009-0.179,0.011-0.269c0.007-0.462,0.027-0.919,0.066-1.372c0.016-0.187,0.042-0.369,0.063-0.555     c0.041-0.354,0.087-0.705,0.146-1.053c0.034-0.2,0.074-0.398,0.115-0.597c0.067-0.331,0.144-0.66,0.229-0.985     c0.05-0.192,0.101-0.385,0.156-0.574c0.1-0.339,0.212-0.672,0.329-1.003c0.058-0.164,0.11-0.329,0.173-0.491     c0.169-0.438,0.354-0.867,0.553-1.289c0.021-0.047,0.04-0.096,0.061-0.143c0.225-0.465,0.471-0.918,0.73-1.362     c0.082-0.14,0.173-0.273,0.258-0.411c0.187-0.302,0.378-0.6,0.58-0.891c0.11-0.158,0.226-0.313,0.341-0.467     c0.194-0.262,0.395-0.518,0.602-0.77c0.125-0.152,0.253-0.305,0.383-0.453c0.218-0.248,0.444-0.489,0.675-0.727     c0.129-0.133,0.255-0.268,0.388-0.397c0.276-0.269,0.563-0.526,0.855-0.778c0.097-0.083,0.189-0.172,0.286-0.254     c0.393-0.325,0.798-0.635,1.216-0.93c0.111-0.078,0.23-0.148,0.343-0.226c0.313-0.21,0.629-0.416,0.954-0.608     c0.164-0.097,0.332-0.187,0.499-0.278c0.288-0.159,0.579-0.313,0.876-0.458c0.182-0.088,0.364-0.174,0.549-0.256     c0.127-0.058,0.258-0.107,0.387-0.161v35.599c-6.863-2.899-11.707-9.66-11.816-17.542     C140.698,206.956,140.695,206.861,140.69,206.749z M159.48,171.436c-1.367,0.098-2.623,0.564-3.684,1.288     c-0.354,0.044-0.707,0.083-1.057,0.138c-0.053,0.008-0.104,0.02-0.157,0.027c-0.725,0.116-1.439,0.26-2.148,0.42     c-0.175,0.04-0.35,0.079-0.524,0.121c-0.742,0.181-1.476,0.38-2.199,0.607c-0.081,0.025-0.161,0.056-0.242,0.082     c-0.66,0.214-1.31,0.449-1.952,0.701c-0.156,0.063-0.314,0.122-0.469,0.186c-0.695,0.285-1.38,0.588-2.051,0.916     c-0.1,0.049-0.197,0.102-0.296,0.151c-0.597,0.299-1.183,0.615-1.759,0.947c-0.138,0.079-0.276,0.157-0.413,0.238     c-0.638,0.379-1.263,0.776-1.873,1.194c-0.033,0.023-0.069,0.043-0.103,0.065V150.17c0-0.26-0.014-0.517-0.039-0.77v-20.178     c0.001-62.98,51.241-114.221,114.223-114.221S368.96,66.242,368.96,129.226v19.14c-0.144,0.58-0.229,1.184-0.229,1.808v28.347     c-0.036-0.024-0.074-0.046-0.11-0.07c-0.605-0.414-1.224-0.808-1.855-1.183c-0.146-0.088-0.295-0.17-0.442-0.256     c-0.561-0.322-1.129-0.629-1.708-0.92c-0.114-0.057-0.226-0.118-0.34-0.174c-0.663-0.324-1.339-0.623-2.024-0.904     c-0.167-0.068-0.335-0.133-0.503-0.199c-0.625-0.244-1.257-0.473-1.898-0.682c-0.096-0.031-0.189-0.066-0.286-0.097     c-0.716-0.226-1.443-0.423-2.178-0.602c-0.182-0.044-0.364-0.085-0.547-0.126c-0.699-0.158-1.404-0.3-2.119-0.414     c-0.059-0.01-0.118-0.022-0.177-0.032c-0.35-0.054-0.702-0.093-1.054-0.137c-1.062-0.724-2.316-1.19-3.684-1.288     c-0.567-0.041-57.002-4.555-82.625-47.836c-0.027-0.046-0.056-0.091-0.083-0.137c-2.087-3.566-6.498-7.55-12.455-7.55     c-5.945,0-10.378,4.011-12.49,7.607c-0.03,0.05-0.061,0.101-0.092,0.151C216.518,166.715,160.036,171.394,159.48,171.436z      M135.59,474.55v22.448H98.533c-2.824,0-5.121-2.298-5.121-5.122V474.55H135.59z M286.43,349.574     c-0.003,0.083-0.005,0.167-0.006,0.251c-0.104,16.674-13.752,30.238-30.424,30.238c-16.672,0-30.321-13.565-30.425-30.238     c-0.001-0.084-0.003-0.168-0.006-0.252V332.42c0.29,0.086,0.583,0.159,0.874,0.243c0.712,0.203,1.424,0.404,2.14,0.593     c0.564,0.148,1.129,0.286,1.694,0.425c0.619,0.151,1.237,0.304,1.859,0.443c0.672,0.151,1.347,0.289,2.021,0.426     c0.533,0.108,1.066,0.221,1.601,0.321c0.765,0.144,1.533,0.269,2.302,0.395c0.462,0.075,0.923,0.157,1.387,0.226     c0.837,0.125,1.678,0.23,2.519,0.334c0.409,0.051,0.817,0.109,1.227,0.154c0.889,0.1,1.782,0.178,2.676,0.253     c0.372,0.032,0.743,0.072,1.117,0.101c0.946,0.069,1.896,0.116,2.848,0.16c0.325,0.016,0.648,0.04,0.975,0.053     c1.273,0.046,2.55,0.071,3.83,0.071h0.001h0.001c0.006,0,0.012-0.001,0.018-0.001c1.441,0,2.875-0.033,4.305-0.092     c0.109-0.005,0.219-0.015,0.329-0.02c9.301-0.413,18.381-2.058,27.134-4.931V349.574z M418.588,491.877h-0.001     c0,2.824-2.297,5.122-5.121,5.122H376.41v-22.448h42.178V491.877z"/>
		</g>
	</g>
</g>
<g>
</g>
<g>
</g>
<g>
</g>
<g>
</g>
<g>
</g>
<g>
</g>
<g>
</g>
<g>
</g>
<g>
</g>
<g>
</g>
<g>
</g>
<g>
</g>
<g>
</g>
<g>
</g>
<g>
</g>
</svg>
