<?xml version="1.0" encoding="iso-8859-1"?>
<!-- Generator: Adobe Illustrator 19.0.0, SVG Export Plug-In . SVG Version: 6.00 Build 0)  -->
<svg xmlns="http://www.w3.org/2000/svg" xmlns:xlink="http://www.w3.org/1999/xlink" version="1.1" id="Layer_1" x="0px" y="0px" viewBox="0 0 512 512" style="enable-background:new 0 0 512 512;" xml:space="preserve">
<g>
	<g>
		<path d="M378.473,6.072c-8.963-2.777-22.013,1.92-26.1,11.069l-25.729,57.832c-2.203,4.95,1.428,10.543,6.849,10.543h52.16    l-51.539,81.563l9.855-48.417c0.945-4.644-2.61-8.991-7.346-8.991H274.14c0.066-0.202,25.237-77.385,25.3-77.588    c5.823-18.065-6.811-25.193-19.899-19.612c-8.043,3.437-15.923,7.557-23.483,12.276C208.926-4.732,156.085-7.4,113.52,14.212    h-0.001C5.768,67.795,5.68,244.093,116.256,325.096c-11.321,99.952,33.023,200.207,66.073,185.122v0.001    c6.627-3,10.78-10.266,12.734-17.136c0,0,3.846-10.383,3.846-33.156c0-18.586,1.858-36.066,7.808-53.625l0.001,0.001    c16.781-48.238,89.085-54.003,103.23,16.922c5.741,29.191,0.669,49.297,7.007,69.569c0.003,0.009,0.201,0.666,0.204,0.672v0.002    c1.571,4.718,3.698,9.501,7.273,12.994c30.784,30.826,83.784-72.2,71.421-181.368c13.629-9.999,22.166-18.688,32.112-29.7    c7.742-8.626-4.347-17.922-10.683-10.549c-26.096,30.479-38.02,28.578-36.838,37.697    c13.008,100.409-31.081,176.291-44.244,174.106c-2.603-0.787-4.725-7.36-5.426-10.06c-5.487-21.546,1.408-50.201-11.252-85.29    c-21.64-61.978-111.066-64.312-129.862,9.473c-8.828,33.619-3.249,56.116-8.326,75.818v-0.001    c-0.319,1.228-0.384,1.378-0.688,2.38h-0.001c-0.665,2.063-2.683,7.273-4.793,7.691c-12.945,2.558-57.178-73.852-44.188-174.117    c0.36-2.779-0.859-5.528-3.164-7.124c-28.483-19.757-53.68-50.653-68.117-89.36c-9.527-25.446-12.08-45.632-12.456-69.85    C46.312,44.912,153.752-25.217,251.911,39.908c2.51,1.667,5.778,1.667,8.288,0c10.958-7.272,22.612-12.716,25.346-13.682    c-0.298,1.121,1.728-5.178-28.86,88.618c-1.578,4.845,2.041,9.819,7.127,9.819h63.635l-16.176,79.478    c-1.651,8.117,9.256,12.509,13.681,5.5l80.64-127.615c3.148-4.982-0.439-11.5-6.336-11.5H345.03l20.931-47.049    c0.295-0.481,2.535-3.738,8.589-2.923c90.705,28.729,118.007,153.32,56.639,245.815c-2.29,3.449-1.348,8.1,2.102,10.39    c3.447,2.289,8.1,1.35,10.389-2.102C509.063,176.116,481.544,38.207,378.473,6.072z"/>
	</g>
</g>
<g>
</g>
<g>
</g>
<g>
</g>
<g>
</g>
<g>
</g>
<g>
</g>
<g>
</g>
<g>
</g>
<g>
</g>
<g>
</g>
<g>
</g>
<g>
</g>
<g>
</g>
<g>
</g>
<g>
</g>
</svg>
