<?xml version="1.0" encoding="iso-8859-1"?>
<!-- Generator: Adobe Illustrator 19.0.0, SVG Export Plug-In . SVG Version: 6.00 Build 0)  -->
<svg xmlns="http://www.w3.org/2000/svg" xmlns:xlink="http://www.w3.org/1999/xlink" version="1.1" id="Layer_1" x="0px" y="0px" viewBox="0 0 512 512" style="enable-background:new 0 0 512 512;" xml:space="preserve">
<g>
	<g>
		<g>
			<path d="M493.907,0H316.333c-4.143,0-7.5,3.358-7.5,7.5s3.357,7.5,7.5,7.5h177.575c1.692,0,3.069,1.377,3.069,3.069v49.339     c0,1.692-1.377,3.069-3.069,3.069c-456.568,0-435.73,0.034-437.24-0.064C42.325,69.51,30.725,57.524,30.725,42.739     c0-15.295,12.442-27.739,27.736-27.739h232.206c4.143,0,7.5-3.358,7.5-7.5s-3.357-7.5-7.5-7.5H58.461     C34.896,0,15.725,19.172,15.725,42.739c0,17.362,10.413,32.329,25.315,39.012v81.204c-21.578-3.672-41.016,13.044-41.016,34.607     c0,12.327,6.391,23.182,16.025,29.449c-13.888,55.145,9.141,117.851,54.782,151.818c-7.134,66.38,19.679,133.126,44.203,133.126     c16.206-0.006,18.769-22.696,18.769-38.807c0-6.777,0.44-14.483,1.476-21.06c-0.059-0.009-0.112-0.017-0.17-0.025l0.186-0.076     c0.346-2.262,0.769-4.538,1.289-6.851h0.001c4.456-19.641,15.145-32.847,35.428-33.08c28.216,0.325,36.428,24.981,38.004,52.878     c0.544,11.732-1.264,38.259,12.514,45.442c25.822,13.462,58.455-59.07,50.666-131.55c17.972-13.396,32.855-31.534,43.212-52.72     c1.819-3.722,0.277-8.213-3.444-10.032c-3.722-1.816-8.213-0.276-10.032,3.444c-9.935,20.322-24.45,37.487-41.977,49.637     c-2.304,1.598-3.525,4.347-3.164,7.128c8.026,61.959-16.535,115.901-28.521,120.563c-7.364-8.939,0.36-32.547-10.277-65.823     c-16.158-46.448-79.533-44.804-94.636,2.004l0.001,0.001c-1.991,6.144-2.918,10.89-3.914,16.842l0.061,0.127     c-0.027-0.004-0.051-0.007-0.079-0.01c-3.093,20.393-0.014,39.987-5.672,46.859c-11.904-4.63-36.57-58.419-28.519-120.563     c0.36-2.781-0.86-5.53-3.165-7.128c-43.102-29.878-64.571-87.448-52.898-136.831c25.5,3.671,45.735-20.547,38.696-44.516     c221.195,0,214.569,0.927,220.492-1.904c28.109,29.228,33.405,74.026,21.935,112.257c-1.19,3.968,1.061,8.148,5.028,9.339     c3.967,1.191,8.148-1.062,9.339-5.028c14.922-49.747,2.543-98.386-26.24-127.704c1.559-4.342,1.169-3.551,1.169-42.789     c0-4.142-3.357-7.5-7.5-7.5c-4.143,0-7.5,3.358-7.5,7.5v36.177c0,2.544-2.111,4.652-4.653,4.652h-18.895V133.24     c0-4.142-3.357-7.5-7.5-7.5c-4.143,0-7.5,3.358-7.5,7.5v39.569h-23.525v-63.855c0-4.142-3.357-7.5-7.5-7.5s-7.5,3.358-7.5,7.5     v63.855c-156.815,0-147.856,0.044-148.569-0.079c-1.068-1.063-2.76-2.509-3.712-3.227c-0.311-1-0.203,4.355-0.203-84.095     c2.174,0.108-14.407,0.069,229.555,0.069v21.504c0,4.142,3.357,7.5,7.5,7.5c4.143,0,7.5-3.358,7.5-7.5V85.476h193.313     c9.964,0,18.068-8.105,18.068-18.068V18.068C511.976,8.106,503.871,0,493.907,0z M29.331,216.811     c-8.171-2.48-14.306-10.107-14.306-19.251c0-16.047,18.008-25.668,31.33-16.687c5.528,3.733,8.898,10.046,8.898,16.687     C55.253,210.913,42.342,220.735,29.331,216.811z"/>
			<path d="M133.982,208.68c-20.25-22.132-57.016-7.698-57.016,22.071c0,18.084,14.712,32.797,32.796,32.797     c2.175,0,4.34-0.226,6.462-0.652c6.099,21.302,25.736,36.944,48.971,36.944c28.09,0,50.942-22.852,50.942-50.942     C216.137,206.655,167.346,182.723,133.982,208.68z M114.261,247.97c-11.343,2.955-22.295-5.66-22.295-17.22     c0-16.697,21.042-24.167,31.606-11.216C117.528,228.093,114.441,238.138,114.261,247.97z M201.138,248.896     c0,19.818-16.124,35.943-35.943,35.943c-26.221,0-43.977-27.55-32.365-51.567c5.824-12.015,18.143-20.318,32.365-20.318     C185.013,212.953,201.138,229.077,201.138,248.896z"/>
			<path d="M231.283,221.217c0,12.828,10.436,23.263,23.264,23.263c12.829,0,23.264-10.436,23.264-23.263     s-10.437-23.263-23.264-23.263C241.719,197.954,231.283,208.39,231.283,221.217z M262.81,221.217     c0,4.557-3.707,8.264-8.265,8.264c-4.558,0-8.265-3.707-8.265-8.264s3.707-8.264,8.265-8.264     C259.104,212.953,262.81,216.66,262.81,221.217z"/>
		</g>
	</g>
</g>
<g>
</g>
<g>
</g>
<g>
</g>
<g>
</g>
<g>
</g>
<g>
</g>
<g>
</g>
<g>
</g>
<g>
</g>
<g>
</g>
<g>
</g>
<g>
</g>
<g>
</g>
<g>
</g>
<g>
</g>
</svg>
