<?xml version="1.0" encoding="iso-8859-1"?>
<!-- Generator: Adobe Illustrator 19.0.0, SVG Export Plug-In . SVG Version: 6.00 Build 0)  -->
<svg xmlns="http://www.w3.org/2000/svg" xmlns:xlink="http://www.w3.org/1999/xlink" version="1.1" id="Layer_1" x="0px" y="0px" viewBox="0 0 511.998 511.998" style="enable-background:new 0 0 511.998 511.998;" xml:space="preserve">
<g>
	<g>
		<g>
			<path d="M163.206,163.191c-24.015,24.02-6.916,65.298,27.051,65.298c33.951,0,51.075-41.265,27.049-65.299     C202.356,148.242,178.16,148.238,163.206,163.191z M190.256,213.491c-20.646,0-31.049-25.087-16.445-39.694     c9.088-9.086,23.798-9.091,32.888-0.001C221.32,188.42,210.879,213.491,190.256,213.491z"/>
			<path d="M511.352,345.064c-12.195-39.624-35.239-79.368-66.641-114.936c-2.741-3.104-7.48-3.4-10.585-0.658     c-3.105,2.741-3.4,7.479-0.658,10.585c29.911,33.881,51.846,71.594,63.445,109.086c0.442,2.963-2.726,6.084-5.187,7.791     C446.51,269.512,353.719,195.68,276.578,187.029c-0.658-17.633-6.824-35.337-18.122-49.808     c52.953,6.783,111.266,38.107,159.615,86.455c2.928,2.928,7.676,2.928,10.605,0c2.929-2.93,2.929-7.677,0-10.607     c-56.243-56.24-125.877-90.521-186.845-92.148c-0.651-0.486-1.318-0.945-1.982-1.412c-3.228-48.87-35.164-90.623-77.812-109.129     c-3.801-1.647-8.215,0.096-9.864,3.895c-1.649,3.8,0.095,8.216,3.895,9.864c34.906,15.148,61.562,47.877,67.708,86.44     c-10.566-4.446-21.915-6.728-33.53-6.728c-3.955-14.018-11.594-26.936-22.326-37.668c-29.96-29.958-63.674-24.882-65.778-25.17     l-2.814-25.131c1-0.239,16.382-2.451,34.817,1.325c4.055,0.823,8.019-1.786,8.851-5.842c0.831-4.059-1.785-8.02-5.842-8.851     C125.97,0.222,112.002-0.828,99.25,0.761C88.046,2.014,83.487,9.78,84.354,16.94l2.996,26.757     c0.936,8.361,8.38,12.918,16.739,12.328c31.474-2.454,61.236,19.74,70.888,49.189c-35.472,6.298-63.445,34.266-69.744,69.744     c-29.32-9.614-51.661-39.303-49.195-70.868c0.612-7.573-3.424-15.763-12.323-16.759c-29.014-3.247-27.134-3.068-28.156-3.068     c-7.173,0-13.601,4.78-14.753,14.731c-8.226,70.78,47.614,136.142,118.723,140.837c0.466,0.662,0.925,1.328,1.411,1.978     c2.935,109.999,109.245,234.158,224.144,269.526c16.901,5.239,40.398-21.981,18.611-33.039     c-83.433-42.113-153.2-132.867-161.615-202.516c12.535-1.704,24.815-6.162,35.866-13.491c3.452-2.289,4.394-6.942,2.104-10.394     c-2.289-3.453-6.944-4.392-10.394-2.104c-25.463,16.89-58.819,15.377-82.666-2.776c-53.955-41.355-24.021-125.467,37.962-127.947     c62.587-4.61,100.078,68.013,60.654,116.27c-2.621,3.208-2.145,7.932,1.063,10.552c3.207,2.621,7.931,2.146,10.552-1.063     c10.091-12.351,16.472-27.142,18.618-42.761c69.592,8.429,160.358,78.151,202.477,161.609     C489.447,385.682,516.509,361.698,511.352,345.064z M187.047,276.563c8.14,72.578,74.626,163.906,169.903,215.144     c-1.768,2.552-4.71,5.542-7.806,5.185C246.757,465.194,150.006,358.006,137.24,258.461     C151.501,269.59,168.776,275.902,187.047,276.563z M15.816,99.763c0.025-0.183,0.055-0.332,0.084-0.453l25.131,2.812     c0.251,1.779-4.852,35.749,25.169,65.778c10.732,10.731,23.651,18.37,37.668,22.325c0,11.612,2.281,22.961,6.729,33.531     C52.138,214.439,8.319,158.47,15.816,99.763z"/>
		</g>
	</g>
</g>
<g>
</g>
<g>
</g>
<g>
</g>
<g>
</g>
<g>
</g>
<g>
</g>
<g>
</g>
<g>
</g>
<g>
</g>
<g>
</g>
<g>
</g>
<g>
</g>
<g>
</g>
<g>
</g>
<g>
</g>
</svg>
