<?xml version="1.0" encoding="iso-8859-1"?>
<!-- Generator: Adobe Illustrator 19.0.0, SVG Export Plug-In . SVG Version: 6.00 Build 0)  -->
<svg xmlns="http://www.w3.org/2000/svg" xmlns:xlink="http://www.w3.org/1999/xlink" version="1.1" id="Layer_1" x="0px" y="0px" viewBox="0 0 512 512" style="enable-background:new 0 0 512 512;" xml:space="preserve">
<g>
	<g>
		<g>
			<path d="M255.157,182.261c20.313,11.492,44.352,10.97,62.968-4.616c30.721-26.332,26.215-81.699-8.572-109.154     c3.197-36.993-13.546-75.147-30.376-67.505V0.985c-1.759,0.787-3.377,2.1-4.66,3.874l0.001,0.001     c-4.019,5.512-3.978,14.03-4.078,19.612c-0.257,9.139-1.8,21.961-10.585,24.637c-8.273,2.441-15.354-0.765-18.317-11.263     c-2.114-8.702-1.487-13.298-1.771-18.503c-0.377-7.195-2.033-15.388-8.615-18.352v0.001     c-17.272-7.685-33.521,31.284-30.389,67.499c-4.85,3.816-9.71,8.805-13.903,14.556l0.054-0.073     c-3.263,4.276-7.467,11.599-10.251,19.093C154.58,161.021,206.181,209.961,255.157,182.261z M212.955,78.094     c2.298-1.599,3.514-4.344,3.154-7.12c-3.049-23.533,3.531-43.566,8.599-52.072c0.319,3.931-0.462,15.455,3.48,26.516     c9.427,27.07,47.119,25.537,54.698-2.354l-7.204-2.081l7.232,1.983c3.064-10.391,2.364-20.044,2.692-24.064     c5.067,8.505,11.647,28.538,8.599,52.073c-0.649,5.009,3.207,7.108,4.988,8.452c43.732,34.415,24.428,103.761-22.457,95.056     c-16.064-3.038-18.654-11.96-25.726-7.264c-18.116,12.018-40.404,10.872-54.222-6.356     C178.356,137.558,185.791,96.993,212.955,78.094z"/>
			<path d="M255.157,264.695c-32.711,0-59.323,26.612-59.323,59.323s26.612,59.323,59.323,59.323s59.323-26.612,59.323-59.323     S287.868,264.695,255.157,264.695z M255.157,368.343c-24.44,0-44.325-19.885-44.325-44.325s19.885-44.325,44.325-44.325     c24.44,0,44.325,19.885,44.325,44.325S279.597,368.343,255.157,368.343z"/>
			<path d="M255.157,288.727c-19.773,0-35.86,16.086-35.86,35.859s16.088,35.859,35.86,35.859s35.86-16.086,35.86-35.859     S274.93,288.727,255.157,288.727z M255.157,345.45c-11.504,0-20.863-9.359-20.863-20.862c0-11.503,9.359-20.862,20.863-20.862     c11.503,0,20.862,9.359,20.862,20.862C276.019,336.09,266.66,345.45,255.157,345.45z"/>
			<path d="M424.574,503.838c-1.294-16.893-4.198-33.678-8.634-49.885c-1.093-3.994-5.215-6.342-9.213-5.254     c-3.994,1.094-6.347,5.218-5.254,9.213c3.477,12.706,5.957,25.791,7.397,39h-46.448c-5.011-38.065-20.2-72.862-45.23-103.625     c12.212-11.002,21.172-24.879,26.124-40.369c22.356,24.741,39.429,52.43,50.802,82.409c1.471,3.872,5.806,5.819,9.672,4.352     c3.872-1.47,5.82-5.799,4.352-9.672c-13.493-35.565-34.473-67.706-61.011-94.945c0.903-7.992,0.682-13.794-0.058-20.819     c7.427-6.34,17.351-15.815,27.165-28.239c2.568-3.251,2.015-7.966-1.235-10.532c-3.25-2.57-7.967-2.015-10.532,1.235     c-22.196,28.098-31.87,27.145-30.75,35.392c9.565,72.419-68.856,114.523-122.526,74.971c-3.156-2.328-7.57-1.828-10.129,1.142     c-27.572,31.996-44.201,68.534-49.488,108.699h-46.448c6.35-58.336,32.578-110.672,73.315-152.241     c4.442-4.109,1.14-7.004,1.14-20.084c0-60.864,67.254-96.324,114.894-68.012c2.439,1.452,5.489,1.398,7.878-0.134     c52.436-33.623,68.425-86.346,72.605-124.655c0.351-3.432,1.909-7.05,3.031-7.261c1.547-0.287,2.646,0.577,3.318,1.976     c22.109,46.038,20.602,90.571-4.478,132.364c-2.132,3.551-0.98,8.158,2.571,10.288c3.551,2.134,8.157,0.981,10.288-2.571     c19.132-31.879,35.555-83.166,5.178-146.492c-7.32-16.063-32.581-14.912-34.826,10.149     c-3.734,34.119-17.601,80.625-62.067,111.114c-23.24-12.181-55.011-12.914-81.482,0.087     c-44.576-30.488-58.483-77.05-62.222-111.203c-2.234-24.94-27.478-26.279-34.827-10.146     c-48.14,100.349,18.807,171.057,45.73,194.093c-0.845,7.526-0.78,14.894,0.207,22.414     c-45.228,47.355-71.192,105.136-75.953,167.239c-0.333,4.356,3.117,8.072,7.477,8.072h61.356c3.854,0,7.082-2.924,7.463-6.76     c3.722-37.557,17.986-71.848,42.424-102.024c30.127,18.881,68.867,18.811,99.112-0.731     c24.797,30.35,39.267,64.886,43.019,102.756c0.381,3.836,3.607,6.759,7.463,6.759c66.524,0,63.882,0.81,66.857-2.403     C424.018,507.975,424.733,505.92,424.574,503.838z M131.003,126.501c0.794-1.658,2.028-2.218,3.319-1.975     c1.075,0.202,2.664,3.68,3.03,7.26c3.916,35.904,18.204,84.469,63.156,118.107c-15.776,11.577-27.84,28.132-33.793,47.326     C139.654,271.783,90.69,210.443,131.003,126.501z"/>
		</g>
	</g>
</g>
<g>
</g>
<g>
</g>
<g>
</g>
<g>
</g>
<g>
</g>
<g>
</g>
<g>
</g>
<g>
</g>
<g>
</g>
<g>
</g>
<g>
</g>
<g>
</g>
<g>
</g>
<g>
</g>
<g>
</g>
</svg>
