<?xml version="1.0" encoding="iso-8859-1"?>
<!-- Generator: Adobe Illustrator 19.0.0, SVG Export Plug-In . SVG Version: 6.00 Build 0)  -->
<svg xmlns="http://www.w3.org/2000/svg" xmlns:xlink="http://www.w3.org/1999/xlink" version="1.1" id="Layer_1" x="0px" y="0px" viewBox="0 0 512 512" style="enable-background:new 0 0 512 512;" xml:space="preserve">
<g>
	<g>
		<path d="M483.346,244.492c-15.301-98.172-126.275-149.941-211.509-96.686c-4.153,1.806-8.308,2.914-12.448,3.346    c0.314-17.471,1.712-33.415,3.878-47.899c11.381,10.258,57.485,23.691,98.886-5.511c3.384-2.387,4.192-7.065,1.805-10.448    c-2.386-3.383-7.064-4.194-10.448-1.805c-24.109,17.011-54.651,19.332-76.604,8.433c12.111-41.062,65.912-64.484,104.19-45.482    c-2.147,7.263-5.793,14.382-10.7,20.846c-2.504,3.298-1.859,8.001,1.438,10.505c3.3,2.504,8.001,1.858,10.505-1.438    c7.454-9.819,12.556-20.971,14.751-32.248c0.595-3.056-0.762-6.161-3.407-7.803c-39.833-24.72-100.29-8.143-124.704,36.068    c6.881-27.665,16.394-48.419,25.012-63.07c2.099-3.569,0.908-8.164-2.661-10.264c-3.57-2.099-8.163-0.908-10.263,2.661    c-10.92,18.563-23.202,46.271-30.44,84.467c-12.161-33.527-50.309-53.492-82.026-43.345c-2.965,0.949-5.035,3.632-5.201,6.741    c-2.211,41.332,42.329,77.485,82.886,66.785c-0.991,9.878-1.628,20.33-1.858,31.343c-4.821-1.461-2.802-1.676-14.308-7.592    c-0.346-0.213-0.706-0.395-1.079-0.548c-46.977-23.646-102.436-19.113-144.88,11.885C21.97,198.844,8.391,285.93,53.813,348.123    c0.086,0.117,97.333,133.281,97.421,133.395c5.169,6.684,25.837,30.486,57.775,30.482c13.702-0.001,29.48-4.382,46.994-16.378    c58.332,39.956,97.383-4.554,104.77-14.102c0.113-0.147,29.858-41.246,29.967-41.396c2.428-3.354,1.677-8.041-1.677-10.469    c-3.354-2.427-8.043-1.678-10.469,1.677l-29.751,41.104c-8.629,11.11-40.163,43.979-88.351,7.96c-2.661-1.989-6.315-1.989-8.978,0    c-48.207,36.035-79.742,3.131-88.358-7.971L65.922,339.281c-19.587-26.82-27.557-59.664-22.442-92.48    c13.746-88.191,114.355-134.775,190.752-85.017c1.85,1.205,21.087,9.839,44.189-0.494c0,0,4.983-3.074,10.808-6.103    c76.019-38.667,166.372,8.668,179.3,91.614c5.114,32.816-2.856,65.66-22.441,92.48l-52.213,71.497    c-2.442,3.344-1.711,8.034,1.633,10.475c3.343,2.443,8.035,1.711,10.476-1.633l52.213-71.498    C480.145,318.069,489.077,281.266,483.346,244.492z M178.461,57.809c28.035-4.86,58.227,18.615,60.628,46.781    C210.889,109.467,180.844,85.816,178.461,57.809z"/>
	</g>
</g>
<g>
</g>
<g>
</g>
<g>
</g>
<g>
</g>
<g>
</g>
<g>
</g>
<g>
</g>
<g>
</g>
<g>
</g>
<g>
</g>
<g>
</g>
<g>
</g>
<g>
</g>
<g>
</g>
<g>
</g>
</svg>
