<?xml version="1.0" encoding="iso-8859-1"?>
<!-- Generator: Adobe Illustrator 19.0.0, SVG Export Plug-In . SVG Version: 6.00 Build 0)  -->
<svg xmlns="http://www.w3.org/2000/svg" xmlns:xlink="http://www.w3.org/1999/xlink" version="1.1" id="Layer_1" x="0px" y="0px" viewBox="0 0 511.999 511.999" style="enable-background:new 0 0 511.999 511.999;" xml:space="preserve">
<g>
	<g>
		<g>
			<path d="M45.424,211.303C45.424,211.303,45.424,211.303,45.424,211.303c0.028-0.014,0.053-0.029,0.08-0.042L45.424,211.303z"/>
			<path d="M504.498,95.859c4.144,0,7.502-3.358,7.502-7.502V49.676c0-13.846-11.266-25.111-25.111-25.111H167.862     c-13.846,0-25.111,11.266-25.111,25.111v157.806c-6.426,2.102-12.698,4.958-18.759,8.573     c-26.355-15.728-55.634-16.486-78.567-4.753c-60.265,30.218-60.648,126.622-0.646,172.753     c-7.328,73.831,34.285,126.839,48.584,92.873c4.154-9.563,2.61-23.836,4.047-35.65l0.022-0.174     c0.717-5.457,1.751-9.423,3.146-13.605l0.001,0.001c6.593-18.956,27.483-20.865,38.559-11.98     c17.653,14.093,8.434,44.706,15.458,61.35h-0.001c1.576,3.792,4.136,7.183,7.889,8.841l0.001-0.001     c22.066,10.039,46.103-47.445,40.721-101.658c31.68-24.234,48.132-65.074,44.434-102.073h119.544v73.826     c0,6.806,8.391,10.096,13.014,5.088l72.844-78.914h33.846c13.846,0,25.111-11.266,25.111-25.111V113.51     c0-4.144-3.358-7.502-7.502-7.502c-4.143,0-7.502,3.358-7.502,7.502v143.36c0,5.573-4.534,10.108-10.108,10.108     c-39.95,0-39.671-0.804-42.643,2.414l-62.058,67.228v-62.14c0-4.144-3.358-7.502-7.502-7.502H245.018     c-4.813-19.368-15.253-37.012-31.946-49.272c-7.729-5.674-17.473,5.784-8.168,12.616c0.345,0.257,0.687,0.523,1.024,0.786v-0.001     c13.298,10.483,20.439,24.054,24.689,40.11l-0.013-0.039c9.368,41.762-10.065,82.669-39.628,103.228     c-2.301,1.598-3.52,4.346-3.159,7.125c6.047,46.674-11.319,83.294-19.391,89.526c-3.692-7.948,0.381-29.398-6.91-48.651     c-13.531-38.434-67.215-35.044-76.675,5.227l0.016-0.063c-0.672,2.373-1.689,6.916-2.302,11.587l-0.024,0.185     c-1.55,12.807-0.326,25.393-2.97,31.7c-8.138-6.349-25.431-42.921-19.396-89.512c1.135-8.75-9.092-6.503-25.768-29.523     c-43.252-60.05-10.265-144.989,57.25-132.571c25.099,4.743,28.517,17.033,36.491,11.734     c16.493-10.949,36.32-15.894,55.506-11.018c4.011,1.023,8.099-1.405,9.118-5.422c1.021-4.016-1.406-8.098-5.422-9.118     c-10.309-2.621-21.734-2.854-29.589-1.686V49.676c0-5.573,4.534-10.108,10.108-10.108h319.025     c5.573,0,10.108,4.534,10.108,10.108v38.681C496.996,92.5,500.354,95.859,504.498,95.859z"/>
			<path d="M447.02,86.337H205.383c-4.144,0-7.502,3.358-7.502,7.502s3.358,7.502,7.502,7.502H447.02     c4.144,0,7.502-3.358,7.502-7.502C454.522,89.695,451.163,86.337,447.02,86.337z"/>
			<path d="M447.02,128.172H205.383c-4.144,0-7.502,3.358-7.502,7.502s3.358,7.502,7.502,7.502H447.02     c4.144,0,7.502-3.358,7.502-7.502C454.522,131.531,451.163,128.172,447.02,128.172z"/>
			<path d="M447.02,170.011H205.383c-4.144,0-7.502,3.358-7.502,7.502c0,4.144,3.358,7.502,7.502,7.502H447.02     c4.144,0,7.502-3.358,7.502-7.502C454.522,173.369,451.163,170.011,447.02,170.011z"/>
			<path d="M447.02,211.848H260.514c-4.144,0-7.502,3.359-7.502,7.502c0,4.144,3.358,7.502,7.502,7.502H447.02     c4.144,0,7.502-3.358,7.502-7.502S451.163,211.848,447.02,211.848z"/>
		</g>
	</g>
</g>
<g>
</g>
<g>
</g>
<g>
</g>
<g>
</g>
<g>
</g>
<g>
</g>
<g>
</g>
<g>
</g>
<g>
</g>
<g>
</g>
<g>
</g>
<g>
</g>
<g>
</g>
<g>
</g>
<g>
</g>
</svg>
