<?xml version="1.0" encoding="iso-8859-1"?>
<!-- Generator: Adobe Illustrator 19.0.0, SVG Export Plug-In . SVG Version: 6.00 Build 0)  -->
<svg xmlns="http://www.w3.org/2000/svg" xmlns:xlink="http://www.w3.org/1999/xlink" version="1.1" id="Layer_1" x="0px" y="0px" viewBox="0 0 512 512" style="enable-background:new 0 0 512 512;" xml:space="preserve">
<g>
	<g>
		<g>
			<path d="M498.06,65.86L387.719,2.154c-4.978-2.873-11.158-2.872-16.134,0l-110.34,63.705c-8.992,5.189-8.068,14.184-8.068,18.819     c-16.035,0.864-38.843,6.833-60.451,20.191C114.655,56.612,23.07,97.699,8.08,192.513     c-9.964,55.135,14.07,124.429,67.217,163.843c-9.196,83.519,27.768,167.364,56.728,154.291v0.001     c15.544-6.987,14.193-36.173,14.645-49.505c0.758-26.773,6.995-56.114,32.356-64.356c22.937-6.809,44.772,2.91,53.498,26.923     c0,0,0,0.001,0,0.002c11.404,32.18,1.385,63.458,14.031,81.148c4.575,6.28,11.318,8.484,18.181,6.292     c18.958-6.064,32.538-42.05,37.899-61.188c1.117-3.988-1.21-8.127-5.199-9.244c-3.983-1.117-8.127,1.211-9.244,5.199     c-9.713,34.674-23.626,50.502-28.538,51.059c0,0-0.025-0.004-0.054-0.007c-1.212-0.517-2.858-4.458-3.635-7.588     c-0.001-0.001-0.001-0.001-0.001-0.001c-3.904-15.303,0.07-32.848-5.734-58.155c-15.368-68.07-92.328-65.666-111.441-12.512     c-10.663,30.208-4.744,52.964-9.332,70.805h-0.001c-0.845,3.251-2.214,6.544-3.579,7.445c-0.049,0.002-0.121,0.004-0.13,0.006     c-12.65-1.396-45.08-65.66-35.037-143.16c0.36-2.782-0.861-5.532-3.167-7.129c-48.21-33.406-74.957-97.836-63.923-156.002     c15.495-82.239,96.142-116.317,164.963-70.655c2.514,1.666,5.781,1.667,8.293-0.001c19.391-12.866,40.964-19.324,56.305-20.326     v107.545c0,5.747,3.092,11.102,8.067,13.973l92.235,53.253c-10.985,28.607-29.471,52.764-50.948,68.859     c-4.375,3.306-8.485,5.086-7.786,10.483c2.9,22.389,2.412,46.236-1.412,68.967c-0.687,4.085,2.067,7.953,6.152,8.641     c4.082,0.68,7.952-2.067,8.641-6.152c3.87-23.006,4.552-46.165,2.032-68.911c25.427-18.844,44.729-44.91,56.454-74.305     c4.994,2.884,7.842,5.033,13.04,5.033c5.597,0,4.89-0.328,40.13-20.674c3.587-2.071,4.816-6.658,2.745-10.245     c-2.07-3.588-6.659-4.815-10.245-2.745l-32.066,18.514c-0.877,0.505,7.053,4.723-111.473-63.709     c-0.35-0.201-0.566-0.577-0.566-0.981c0-136.124-0.315-127.885,0.567-128.393C386.62,10.798,379.339,14.638,380.222,15.147     L490.561,78.85c0.882,0.51,0.567-7.733,0.567,128.393c0,0.404-0.218,0.78-0.531,0.962l-56.872,32.412     c-3.599,2.051-4.853,6.631-2.802,10.229c2.051,3.599,6.631,4.854,10.229,2.802l56.908-32.433     c4.977-2.873,8.067-8.227,8.067-13.973V79.832C506.127,74.086,503.036,68.733,498.06,65.86z"/>
			<path d="M435.623,215.775c4.216,0,7.59-3.462,7.501-7.659l-0.404-19.123l17.927,10.35c3.592,2.072,8.177,0.839,10.245-2.745     c2.071-3.587,0.842-8.174-2.745-10.245l-17.927-10.35l16.764-9.211c3.631-1.995,4.956-6.555,2.962-10.184     c-1.994-3.631-6.555-4.956-10.185-2.962l-24.729,13.588l-33.354-19.258c0.534-2.652,0.597-5.398,0.12-8.205     c0.733-0.385-3.753,2.191,33.233-19.164c27.073,14.878,25.779,14.518,28.334,14.518c7.712,0,10.403-10.345,3.619-14.074     l-16.766-9.213l17.927-10.35c3.587-2.071,4.816-6.658,2.745-10.245c-2.071-3.588-6.66-4.815-10.245-2.745l-17.926,10.35     l0.405-19.121c0.088-4.142-3.198-7.569-7.339-7.657c-4.181-0.095-7.57,3.198-7.657,7.339l-0.598,28.208     c-69.448,40.096-2.716,1.566-33.034,19.079c-2.13-1.879-4.615-3.361-7.344-4.331V84.304l24.132-14.622     c3.542-2.146,4.674-6.758,2.527-10.301c-2.146-3.543-6.759-4.673-10.301-2.527l-16.358,9.912V46.068c0-4.143-3.357-7.5-7.5-7.5     c-4.142,0-7.5,3.357-7.5,7.5v20.698l-16.359-9.912c-3.541-2.146-8.154-1.014-10.301,2.527c-2.146,3.543-1.015,8.154,2.527,10.301     l24.133,14.622v38.062c-2.727,0.969-5.211,2.449-7.34,4.327l-33.04-19.076l-0.597-28.206c-0.086-4.088-3.427-7.342-7.495-7.342     c-4.21,0-7.59,3.458-7.501,7.658l0.403,19.121l-17.924-10.349c-3.588-2.07-8.175-0.843-10.245,2.745     c-2.071,3.587-0.842,8.174,2.745,10.245l17.927,10.35l-16.765,9.212c-6.782,3.728-4.094,14.074,3.619,14.074     c2.557,0,1.278,0.351,28.334-14.517l33.229,19.186c-0.447,2.658-0.438,5.392,0.124,8.184l-33.356,19.258l-24.727-13.588     c-3.631-1.991-8.19-0.67-10.185,2.961c-1.994,3.631-0.669,8.19,2.961,10.186l16.762,9.211l-17.926,10.35     c-3.587,2.071-4.816,6.658-2.745,10.245c2.071,3.589,6.66,4.815,10.245,2.745l17.927-10.35l-0.404,19.124     c-0.089,4.197,3.287,7.658,7.501,7.658c4.068,0,7.409-3.254,7.495-7.342l0.596-28.209l33.57-19.381     c2.007,1.662,4.309,2.98,6.811,3.869v38.824l-24.133,14.621c-6.481,3.926-3.65,13.915,3.894,13.915     c2.768,0,2.522-0.264,20.239-10.998v20.7c0,4.143,3.358,7.5,7.5,7.5c4.143,0,7.5-3.357,7.5-7.5v-20.7l16.358,9.911     c3.542,2.147,8.155,1.016,10.301-2.527c2.146-3.543,1.015-8.154-2.527-10.301l-24.132-14.621v-38.824     c2.502-0.889,4.804-2.207,6.811-3.869l33.567,19.381l0.598,28.21C428.214,212.521,431.555,215.775,435.623,215.775z      M379.652,151.004c-4.117,0-7.467-3.35-7.467-7.466s3.35-7.466,7.467-7.466c4.117,0,7.466,3.35,7.466,7.466     S383.768,151.004,379.652,151.004z"/>
		</g>
	</g>
</g>
<g>
</g>
<g>
</g>
<g>
</g>
<g>
</g>
<g>
</g>
<g>
</g>
<g>
</g>
<g>
</g>
<g>
</g>
<g>
</g>
<g>
</g>
<g>
</g>
<g>
</g>
<g>
</g>
<g>
</g>
</svg>
