<?xml version="1.0" encoding="iso-8859-1"?>
<!-- Generator: Adobe Illustrator 19.0.0, SVG Export Plug-In . SVG Version: 6.00 Build 0)  -->
<svg xmlns="http://www.w3.org/2000/svg" xmlns:xlink="http://www.w3.org/1999/xlink" version="1.1" id="Layer_1" x="0px" y="0px" viewBox="0 0 512 512" style="enable-background:new 0 0 512 512;" xml:space="preserve">
<g>
	<g>
		<g>
			<path d="M493.852,241.627c-9.661-12.358-20.197,0.16-13.343,7.539c28.438,30.697,18.71,88.587-18.918,114.66     c-2.303,1.598-3.523,4.348-3.162,7.127c4.37,33.732-6.294,64.583-14.942,74.165c-2.34-8.7,0.708-21.346-4.794-38.197     l-7.127,2.339l7.081-2.48c-11.821-36.377-68.881-37.808-70.739,22.198c-0.239,4.327,0.226,10.556-1.18,16.117v0.003     c-8.491-9.369-18.62-38.666-15.339-70.714c0.308-3.064,1.553-7.566-2.771-10.558c-6.947-4.822-13.374-11.082-19.008-18.834     c-45.703-63.444,10.209-142.06,71.347-101.468c2.514,1.67,5.784,1.67,8.298,0c15.888-10.548,35.14-14.268,52.813-7.161     c3.842,1.541,8.212-0.318,9.759-4.162c1.545-3.845-0.318-8.212-4.162-9.759c-18.589-7.473-41.157-6.555-62.558,5.991     c-7.116-4.173-14.568-7.149-22.236-8.902c0-12.488,0-99.658,0-110.402c0-10.76-8.754-19.513-19.514-19.513h-21.425v-21.68     c0-9.73-7.915-17.644-17.645-17.644h-4.226c-9.73,0-17.645,7.914-17.645,17.644v21.68h-11.721v-21.68     c0-9.73-7.914-17.644-17.644-17.644h-4.228c-9.728,0-17.642,7.914-17.642,17.644v21.68H131.686v-21.68     c0-9.73-7.915-17.644-17.645-17.644h-4.224c-9.731,0-17.645,7.914-17.645,17.644v21.68H80.451v-21.68     c0-9.73-7.914-17.644-17.643-17.644h-4.228c-9.729,0-17.643,7.914-17.643,17.644v21.68H19.514C8.754,89.614,0,98.368,0,109.127     c0,4.597,0,276.199,0,280.778c0,10.76,8.754,19.513,19.514,19.513h40.694c4.144,0,7.501-3.358,7.501-7.501     s-3.358-7.501-7.501-7.501H19.514c-2.487,0-4.512-2.023-4.512-4.511V185.419h286.576c4.144,0,7.501-3.357,7.501-7.501     s-3.358-7.501-7.501-7.501H15.002v-61.289c0-2.486,2.024-4.511,4.512-4.511H40.94v14.875c0,9.12,6.956,16.648,15.842,17.552     c1.158,0.119,1.518,0.092,6.028,0.092c9.722,0,17.643-7.909,17.643-17.644v-14.875h11.721v14.875     c0,9.12,6.957,16.648,15.844,17.552c1.132,0.116,1.412,0.092,6.026,0.092c9.724,0,17.645-7.909,17.645-17.644v-14.875h119.495     v14.875c0,9.12,6.956,16.648,15.841,17.552c1.159,0.119,1.521,0.092,6.028,0.092c9.729,0,17.644-7.915,17.644-17.644v-14.875     h11.721v14.875c0,9.729,7.916,17.644,17.645,17.644c4.566,0,4.889,0.025,6.026-0.092c8.886-0.904,15.844-8.431,15.844-17.552     v-14.875h21.425c2.487,0,4.512,2.023,4.512,4.511v61.289h-41.615c-4.144,0-7.501,3.358-7.501,7.501s3.358,7.501,7.501,7.501     h41.615v32.3c-11.435,0-21.414,2.445-30.255,6.96l0.078-0.04c-9.206,4.326-28.943,18.118-36.431,46.603h-0.001     c-1.899,7.008-3.046,15.075-3.046,22.58c-0.306,30.184,13.458,60.295,38.19,79.636c-0.725,7.578-0.773,16.358-0.438,20.958     H85.544c-4.144,0-7.501,3.358-7.501,7.501s3.358,7.501,7.501,7.501h251.997c4.159,26.298,18.115,58.536,35.166,51.242h0.001     c8.935-3.918,10.102-17.209,10.102-26.902c0-7.904,0.942-13.401,0.942-13.401c0.271-1.78,0.63-3.587,1.034-5.262h-0.001     c0.286-1.113,0.657-2.608,1.348-4.586c6.919-19.131,31.533-18.412,37.89-0.141h0.001c1.777,5.131,2.706,10.462,3.096,15.882     c0.586,10.87-0.901,29.433,10.369,34.407v-0.001c20.107,8.906,40.789-40.555,36.316-87.199     C514.703,341.397,524.926,279.626,493.852,241.627z M65.45,119.492c-0.001,1.456-1.185,2.641-2.64,2.641h-4.228     c-1.455,0-2.64-1.184-2.64-2.641c0-14.184,0-35.419,0-51.557c0-1.456,1.184-2.641,2.64-2.641h4.228     c1.455,0,2.64,1.184,2.64,2.641C65.45,84.073,65.45,105.308,65.45,119.492z M116.685,119.492     c-0.001,1.456-1.186,2.641-2.643,2.641h-4.224c-1.457,0-2.642-1.184-2.642-2.641c0-14.184,0-35.419,0-51.557     c0-1.456,1.185-2.641,2.642-2.641h4.225c1.457,0,2.642,1.184,2.642,2.641C116.685,84.073,116.685,105.308,116.685,119.492z      M275.692,119.492c0,1.456-1.185,2.641-2.641,2.641h-4.228c-1.455,0-2.639-1.184-2.639-2.641c0-14.184,0-35.419,0-51.557     c0-1.456,1.184-2.641,2.639-2.641h4.228c1.456,0,2.641,1.184,2.641,2.641C275.692,84.073,275.692,105.308,275.692,119.492z      M326.927,119.492c-0.001,1.456-1.185,2.641-2.642,2.641h-4.226c-1.457,0-2.642-1.184-2.642-2.641c0-14.184,0-35.419,0-51.557     c0-1.456,1.185-2.641,2.642-2.641h4.226c1.457,0,2.642,1.184,2.642,2.641C326.927,84.073,326.927,105.308,326.927,119.492z"/>
			<path d="M54.569,228.465h252.14c4.144,0,7.501-3.358,7.501-7.501s-3.357-7.501-7.501-7.501H54.569     c-4.144,0-7.501,3.358-7.501,7.501S50.425,228.465,54.569,228.465z"/>
			<path d="M54.569,262.5h231.761c4.144,0,7.501-3.358,7.501-7.501s-3.358-7.501-7.501-7.501H54.569     c-4.144,0-7.501,3.358-7.501,7.501C47.068,259.142,50.425,262.5,54.569,262.5z"/>
			<path d="M54.569,296.535h225.253c4.144,0,7.501-3.358,7.501-7.501s-3.358-7.501-7.501-7.501H54.569     c-4.144,0-7.501,3.358-7.501,7.501S50.425,296.535,54.569,296.535z"/>
			<path d="M54.569,330.569h229.759c4.144,0,7.501-3.358,7.501-7.501s-3.358-7.501-7.501-7.501H54.569     c-4.144,0-7.501,3.358-7.501,7.501S50.425,330.569,54.569,330.569z"/>
			<path d="M54.569,364.606h244.774c4.144,0,7.501-3.358,7.501-7.501s-3.358-7.501-7.501-7.501H54.569     c-4.144,0-7.501,3.358-7.501,7.501S50.425,364.606,54.569,364.606z"/>
		</g>
	</g>
</g>
<g>
</g>
<g>
</g>
<g>
</g>
<g>
</g>
<g>
</g>
<g>
</g>
<g>
</g>
<g>
</g>
<g>
</g>
<g>
</g>
<g>
</g>
<g>
</g>
<g>
</g>
<g>
</g>
<g>
</g>
</svg>
