<?xml version="1.0" encoding="iso-8859-1"?>
<!-- Generator: Adobe Illustrator 19.0.0, SVG Export Plug-In . SVG Version: 6.00 Build 0)  -->
<svg xmlns="http://www.w3.org/2000/svg" xmlns:xlink="http://www.w3.org/1999/xlink" version="1.1" id="Layer_1" x="0px" y="0px" viewBox="0 0 512 512" style="enable-background:new 0 0 512 512;" xml:space="preserve">
<g>
	<g>
		<g>
			<path d="M460.218,124.169h-14.953v-21.672c8.828-3.328,15.126-11.858,15.126-21.836V58.566c0-20.324-16.536-36.86-36.86-36.86     h-51.387c-20.307,0-36.842,16.521-36.859,36.835v16.732c-4.327-3.479-9.286-6.903-14.466-9.899     c-3.578-2.08-8.17-0.86-10.247,2.721c-2.078,3.581-0.861,8.169,2.721,10.247c15.549,9.06,27.76,21.438,37.118,36.725v9.102     h-15.662c-28.552,0-51.781,23.228-51.781,51.781c0,280.136-0.211,264.069,0.391,268.87     c-9.601,22.749-19.053,30.476-21.965,30.479c-1.053,0-3.451-4.333-4.741-11.529c-1.722-9.584-1.247-18.895-1.508-26.115     c-3.219-104.637-96.065-101.644-118.114-43.307c-8.485,23.155-7.254,50.808-7.666,58.443c-0.91,17.133-4.906,22.508-5.927,22.508     c-11.731-0.013-47.139-65.658-36.478-147.927c0.36-2.78-0.86-5.528-3.164-7.125C30.486,283.294,7.389,214.943,17.766,159.12     C33.686,74.615,116.59,38.507,188.27,86.086c2.513,1.667,5.78,1.668,8.292-0.001c28.467-18.898,62.287-26.445,94.306-17.271     c3.976,1.137,8.131-1.161,9.271-5.143c1.141-3.979-1.161-8.132-5.143-9.271c-34.743-9.955-71.305-2.853-102.581,16.533     C111.784,20.965,17.53,63.899,2.21,161.091c-9.881,54.673,13.39,127.679,69.34,168.835     c-8.731,78.553,23.064,160.369,51.883,160.369c11.981,0,17.376-12.085,19.504-23.876c4.018-22.439-6.363-96.479,49.478-97.105     c37.205,0.418,46.979,35.115,47.829,72.17c0.184,10.004-1.06,48.81,21.159,48.81c11.835-0.011,21.913-13.014,28.825-25.381     c9.036,15.182,25.607,25.381,44.521,25.381h125.47c28.552,0,51.782-23.228,51.782-51.78c0-10.129,0-252.303,0-262.564     C512,147.398,488.771,124.169,460.218,124.169z M350.277,80.664V58.547h0.001c0.01-12.047,9.819-21.847,21.866-21.847h51.387     c12.058,0,21.867,9.809,21.867,21.867v22.097c0,4.596-3.739,8.335-8.337,8.335h-78.447     C354.016,88.999,350.277,85.26,350.277,80.664z M430.273,103.992v20.178h-64.868c0-7.485,0-12.407,0-20.178H430.273z      M497.007,244.114H463.82c-4.141,0-7.497,3.356-7.497,7.497s3.356,7.497,7.497,7.497h33.187V405.51H359.191     c-4.141,0-7.497,3.356-7.497,7.497s3.356,7.497,7.497,7.497h137.815v18.01c0,20.284-16.503,36.786-36.788,36.786h-125.47     c-20.266,0-36.787-16.499-36.787-36.786v-18.01h36.245c4.14,0,7.497-3.356,7.497-7.497s-3.357-7.497-7.497-7.497h-36.245V259.108     h140.532c4.141,0,7.497-3.356,7.497-7.497s-3.356-7.497-7.497-7.497H297.961v-34.349h199.045V244.114z M497.007,194.771H297.961     V175.95c0-20.284,16.503-36.787,36.787-36.787c5.095,0,120.132,0,125.47,0c20.285,0,36.788,16.503,36.788,36.787V194.771z"/>
			<path d="M327.867,296.938c0,4.141,3.356,7.497,7.497,7.497h124.241c4.141,0,7.497-3.356,7.497-7.497s-3.356-7.497-7.497-7.497     H335.363C331.222,289.441,327.867,292.796,327.867,296.938z"/>
			<path d="M459.605,323.979H335.363c-4.141,0-7.497,3.356-7.497,7.497c0,4.141,3.356,7.497,7.497,7.497h124.241     c4.141,0,7.497-3.356,7.497-7.497C467.101,327.335,463.746,323.979,459.605,323.979z"/>
			<path d="M459.605,358.516H335.363c-4.141,0-7.497,3.357-7.497,7.497c0,4.141,3.356,7.497,7.497,7.497h124.241     c4.141,0,7.497-3.356,7.497-7.497C467.101,361.873,463.746,358.516,459.605,358.516z"/>
		</g>
	</g>
</g>
<g>
</g>
<g>
</g>
<g>
</g>
<g>
</g>
<g>
</g>
<g>
</g>
<g>
</g>
<g>
</g>
<g>
</g>
<g>
</g>
<g>
</g>
<g>
</g>
<g>
</g>
<g>
</g>
<g>
</g>
</svg>
