<?xml version="1.0" encoding="iso-8859-1"?>
<!-- Generator: Adobe Illustrator 19.0.0, SVG Export Plug-In . SVG Version: 6.00 Build 0)  -->
<svg xmlns="http://www.w3.org/2000/svg" xmlns:xlink="http://www.w3.org/1999/xlink" version="1.1" id="Layer_1" x="0px" y="0px" viewBox="0 0 512.002 512.002" style="enable-background:new 0 0 512.002 512.002;" xml:space="preserve">
<g>
	<g>
		<g>
			<path d="M449.633,176.729c-1.366-3.909-5.644-5.972-9.556-4.604c-3.91,1.368-5.973,5.646-4.603,9.557     c20.965,59.95-4.166,133.202-56.831,169.711c-2.305,1.598-3.525,4.347-3.165,7.129c9.969,76.942-23.062,137.833-33.751,138.424     c-8.923-6.806-0.906-43.408-12.375-75.688c-17.605-50.598-88.233-52.001-105.814,2.627c-4.591,14.311-6.149,29.984-6.149,44.953     c0,23.36-4.87,27.743-5.347,28.108c-10.605-0.585-43.74-61.322-33.751-138.424c0.36-2.781-0.86-5.531-3.165-7.129     c-53.794-37.292-77.657-111.521-56.562-170.489c12.248,28.41,43.278,43.563,73.168,36.01     c5.056,14.291,18.576,24.232,34.462,24.232c20.18,0,36.597-16.417,36.597-36.595c0-16.127-10.543-29.979-25.244-34.781     c0.252-1.139,0.654-3.323,0.762-4.018c25.345,1.343,48.814-14.736,55.51-41.002c50.972-25.923,104.89-9.558,131.817,35.73     c2.117,3.561,6.719,4.73,10.28,2.614c3.56-2.117,4.73-6.72,2.613-10.281c-29.352-49.367-87.289-69.22-143.297-45.251     c-0.72-9.315-3.817-18.233-9.071-26.01c-2.318-3.432-6.981-4.334-10.414-2.016c-3.433,2.319-4.335,6.982-2.017,10.415     c17.343,25.669-0.904,60.886-32.389,60.886c-23.011,0-41.81-20.159-38.711-44.158c3.411-25.724,30.523-41.008,54.206-30.759     c3.802,1.644,8.217-0.104,9.863-3.905c1.645-3.801-0.104-8.218-3.905-9.862c-29.102-12.591-62.733,2.578-72.735,32.573     c-0.592-0.133-1.189-0.244-1.784-0.36c-3.023-17.774-18.525-31.353-37.148-31.353c-31.548,0-49.306,36.876-29.187,61.508     c-5.391,9.258-8.495,20.001-8.502,31.462c-36.773,66.055-13.493,158.63,49.441,205.093c-8.94,81.89,27.818,163.929,56.063,149.2     c9.049-4.718,13.447-18.273,13.447-41.435c0-35.672,8.967-70.113,44.495-70.524c32.502,0.378,42.684,28.701,44.259,61.168     c0.639,12.475-1.535,42.857,13.681,50.791c28.182,14.696,65.025-67.117,56.064-149.2     C446.33,320.143,472.405,241.84,449.633,176.729z M247.79,204.551c0,11.906-9.688,21.593-21.595,21.593     c-9.503,0-17.575-6.024-20.457-14.639c11.177-5.958,20.614-15.275,26.814-27.59C241.405,186.64,247.79,194.908,247.79,204.551z      M187.334,109.491c-1.04,24.004,14.069,45.613,36.218,53.335c-0.972,6.668-3.285,13.013-7.192,19.042     c-23.717,36.39-77.995,24.986-86.82-15.672C122.096,131.603,153.337,101.421,187.334,109.491z M151.126,78.013     c9.924,0,18.38,6.405,21.452,15.296c-15.161,0.903-29.911,7.312-41.117,18.696C122.744,96.87,133.779,78.013,151.126,78.013z"/>
			<path d="M78.39,117.338c-13.371,0-24.249,10.879-24.249,24.25c0,13.371,10.878,24.249,24.249,24.249     c13.371,0,24.249-10.878,24.249-24.249C102.64,128.216,91.762,117.338,78.39,117.338z M78.39,150.836     c-5.099,0-9.248-4.148-9.248-9.248s4.148-9.249,9.248-9.249s9.248,4.148,9.248,9.249C87.638,146.687,83.49,150.836,78.39,150.836     z"/>
			<path d="M189.493,58.642c16.168,0,29.321-13.153,29.321-29.32C218.814,13.153,205.661,0,189.493,0     c-16.169,0-29.322,13.153-29.322,29.321C160.17,45.488,173.324,58.642,189.493,58.642z M189.493,15.001     c7.896,0,14.319,6.424,14.319,14.319s-6.424,14.318-14.319,14.318c-7.897,0-14.32-6.424-14.32-14.318     C175.172,21.425,181.596,15.001,189.493,15.001z"/>
		</g>
	</g>
</g>
<g>
</g>
<g>
</g>
<g>
</g>
<g>
</g>
<g>
</g>
<g>
</g>
<g>
</g>
<g>
</g>
<g>
</g>
<g>
</g>
<g>
</g>
<g>
</g>
<g>
</g>
<g>
</g>
<g>
</g>
</svg>
