<?xml version="1.0" encoding="iso-8859-1"?>
<!-- Generator: Adobe Illustrator 19.0.0, SVG Export Plug-In . SVG Version: 6.00 Build 0)  -->
<svg xmlns="http://www.w3.org/2000/svg" xmlns:xlink="http://www.w3.org/1999/xlink" version="1.1" id="Layer_1" x="0px" y="0px" viewBox="0 0 512 512" style="enable-background:new 0 0 512 512;" xml:space="preserve">
<g>
	<g>
		<g>
			<path d="M487.85,254.525l-140.115,73.33h-39.26v-48.142c0-4.146-3.359-7.505-7.505-7.505s-7.505,3.359-7.505,7.505v48.142     c-250.605,0-239.53-0.047-241.745,0.096c0-94.084-0.339-88.157,0.78-90.001c2.722-4.154,8.4-2.362,10.869-0.495l11.931,9.022     v44.733c0,4.146,3.359,7.505,7.505,7.505s7.505-3.359,7.505-7.505v-44.654l12.822-9.362l12.237,8.817v24.203     c0,4.145,3.359,7.505,7.505,7.505s7.505-3.36,7.505-7.505v-24.456l14.339-10.329h143.493c2.897,0,5.253,2.356,5.253,5.253v14.489     c0,4.146,3.359,7.505,7.505,7.505c4.146,0,7.505-3.359,7.505-7.505v-14.489c0-11.173-9.089-20.262-20.262-20.262     c-157.344,0-147.491-0.609-150.301,1.416l-15.211,10.958l-15.209-10.958c-2.634-1.897-6.189-1.886-8.812,0.027l-15.794,11.531     c-11.075-8.374-15.508-12.975-25.909-12.975c-11,0-20.264,8.947-20.264,20.262v90.955c-15.635,6.908-26.577,22.555-26.577,40.718     c0,24.538,19.961,44.502,44.498,44.502h216.303c4.144,0,7.505-3.359,7.505-7.505s-3.36-7.505-7.505-7.505H54.633     c-16.26,0-29.489-13.231-29.489-29.493c0-16.394,13.402-29.491,29.489-29.491c315.899,0,295.998,0.417,298.426-0.856     c0.227-0.119,143.695-75.213,143.932-75.313v62.047c0,4.21-2.404,5.756-2.803,5.98c-1.106,0.575-126.928,66.426-128.264,67.126     H296.42c-4.146,0-7.505,3.359-7.505,7.505s3.359,7.505,7.505,7.505c77.435,0,72.507,0.36,74.828-0.854     c0.411-0.215,129.556-67.802,129.967-68.018c5.214-2.802,10.785-9.327,10.785-19.241v-62.466     C512,253.844,502.437,246.396,487.85,254.525z"/>
			<path d="M0.732,117.157c0.008,0.069,0.01,0.087,0.009,0.076C0.739,117.208,0.735,117.183,0.732,117.157z"/>
			<path d="M82.609,210.002h189.408c24.729,0,44.847-20.117,44.847-44.846c0-24.729-20.118-44.847-44.847-44.847h-19.928     c-4.146,0-7.505,3.359-7.505,7.505s3.359,7.505,7.505,7.505h19.928c16.453,0,29.838,13.385,29.838,29.838     c0,16.452-13.385,29.837-29.838,29.837c-204.717,0-195.348-0.436-195.348-0.436c-2.271,0.017-52.246-0.062-60.993-78.83     c-0.048-0.839-0.135-1.754-0.26-2.733c11.77,10.239,32.925,22.325,67.193,22.325h144.234c4.146,0,7.505-3.359,7.505-7.505     s-3.359-7.505-7.505-7.505H82.609c-29.846,0-47.77-10.234-57.51-18.782C11.792,89.673,0.032,95.449,0,108.71     c0,1.429,0.729,8.375,0.741,8.523C6.363,168.153,32.026,210.002,82.609,210.002z"/>
		</g>
	</g>
</g>
<g>
</g>
<g>
</g>
<g>
</g>
<g>
</g>
<g>
</g>
<g>
</g>
<g>
</g>
<g>
</g>
<g>
</g>
<g>
</g>
<g>
</g>
<g>
</g>
<g>
</g>
<g>
</g>
<g>
</g>
</svg>
