<?xml version="1.0" encoding="iso-8859-1"?>
<!-- Generator: Adobe Illustrator 19.0.0, SVG Export Plug-In . SVG Version: 6.00 Build 0)  -->
<svg xmlns="http://www.w3.org/2000/svg" xmlns:xlink="http://www.w3.org/1999/xlink" version="1.1" id="Layer_1" x="0px" y="0px" viewBox="0 0 511.999 511.999" style="enable-background:new 0 0 511.999 511.999;" xml:space="preserve">
<g>
	<g>
		<g>
			<path d="M185.174,55.061c0-13.615,2.477-28.998,13.409-37.132c7.504-5.628,4.88-15.985-4.98-16.967     c-22.369-2.33-45.288,1.23-58.982,18.953c-3.854-4.626-9.375-7.133-15.196-7.133l-40.481-0.002     C73.517-0.784,56.044-4.326,45.778,5.941c-3.832,3.832-5.94,8.926-5.939,14.341c0,157.728-0.812,148.129,2,153.984l29.112,60.584     c-2.203,6.433-1.552-11.148-1.552,248.289c0,7.696,2.996,14.931,8.437,20.372c18.273,18.274,49.183,4.995,49.183-20.372V325.861     c0-4.142-3.358-7.5-7.5-7.5s-7.5,3.358-7.5,7.5v119.453l-27.623,0.002V283.415h27.621v17.446c0,4.143,3.358,7.5,7.5,7.5     s7.5-3.357,7.5-7.5v-56.703c0-12.711-8.28-23.519-19.727-27.334l-26.89-55.963v-18.557c0.534,0,38.43,0,39.029,0     c6.83,0,12.825-3.431,16.41-8.744c5.186,4.056,11.705,6.482,18.783,6.482c16.846,0,30.553-13.707,30.553-30.556V55.061z      M119.424,27.782c2.635,0,4.771,2.132,4.77,4.77v9.373H80.398l-0.001-14.142H119.424z M124.068,56.923V70.81H80.398     l-0.001-13.887H124.068z M112.017,460.314v22.825c0,3.689-1.437,7.158-4.045,9.767c-8.623,8.62-23.576,2.591-23.576-9.767     v-22.823L112.017,460.314z M100.993,230.63c6.285,1.295,11.025,6.869,11.025,13.529v24.257H84.396V244.16     C84.396,236.721,90.58,229.197,100.993,230.63z M90.445,216.4c-3.44,0.956-6.649,2.541-9.48,4.663     c-27.595-57.428-26.127-53.854-26.128-55.583c0-156.933-0.663-146.724,1.546-148.933c3.314-3.316,9.014-0.957,9.015,3.733     c0,153.524-0.313,143.341,0.742,145.537L90.445,216.4z M80.398,99.697V85.81h43.67v13.889L80.398,99.697z M124.195,122.538     c0.001,2.633-2.127,4.768-4.771,4.768H80.399v-12.609l43.795,0.002V122.538z M170.175,55.061v54.428     c0,8.578-6.978,15.556-15.553,15.556c-7.937,0-14.492-5.98-15.427-13.669c0-6.057-0.001-53.894-0.001-62.011     c1.943-23.371,17.777-33.665,41.222-34.036C175.003,23.143,170.175,35.575,170.175,55.061z"/>
			<path d="M449.79,296.361c4.143,0,7.5-3.357,7.5-7.5V254.6c8.718-3.096,14.979-11.424,14.979-21.189v-65.687     c0-12.396-10.085-22.481-22.479-22.481h-58.395v-10.151c0-11.448-9.314-20.761-20.761-20.761h-4.123v-13.21     c10.837-0.681,19.45-9.688,19.45-20.694V49.871c0-4.143-3.357-7.5-7.5-7.5s-7.5,3.357-7.5,7.5v30.556     c0,3.177-2.584,5.762-5.76,5.762c-9.848,0-69.262,0-77.98,0c-3.176,0-5.76-2.585-5.76-5.762V20.759c0-3.176,2.584-5.76,5.76-5.76     h77.98c3.176,0,5.76,2.584,5.76,5.76v5.113c0,4.143,3.357,7.5,7.5,7.5s7.5-3.357,7.5-7.5v-5.113     C385.961,9.313,376.649,0,365.202,0h-77.98c-11.447,0-20.759,9.313-20.759,20.759v59.668c0,11.007,8.614,20.014,19.45,20.694     v13.211h-4.125c-11.447,0-20.76,9.313-20.76,20.761v10.151h-58.396c-12.394,0-22.478,10.085-22.478,22.481v65.686     c0,9.767,6.262,18.094,14.978,21.189v147.992c-8.718,3.096-14.978,11.423-14.978,21.189v65.687     c0,12.395,10.084,22.479,22.478,22.479H367.05c4.143,0,7.5-3.357,7.5-7.5c0-4.143-3.357-7.5-7.5-7.5H202.634     c-4.124,0-7.479-3.355-7.479-7.48v-65.687c0-4.125,3.355-7.48,7.479-7.48c9.845,0,237.394,0,247.156,0     c4.125,0,7.48,3.355,7.48,7.48v65.687c0,4.125-3.355,7.48-7.48,7.48h-56.74c-4.143,0-7.5,3.357-7.5,7.5     c0,4.143,3.357,7.5,7.5,7.5h56.74c12.396,0,22.479-10.085,22.479-22.479v-65.687c0-9.767-6.263-18.093-14.979-21.189v-89.731     c0-4.143-3.357-7.5-7.5-7.5c-4.143,0-7.5,3.357-7.5,7.5v87.751c-59.692,0-55.909-0.278-57.999,0.69H210.133v-145.41H442.29     v32.971C442.29,293.005,445.648,296.361,449.79,296.361z M300.914,101.187h50.599v13.144h-50.599V101.187z M276.029,135.093     c0-3.177,2.584-5.762,5.761-5.762c10.342,0,78.481,0,88.846,0c3.177,0,5.762,2.585,5.762,5.762v10.151H276.029V135.093z      M202.634,240.891v0.001c-4.124,0-7.479-3.356-7.479-7.481v-65.687c0-4.125,3.355-7.482,7.479-7.482     c10.132,0,235.541,0,247.156,0c4.125,0,7.48,3.357,7.48,7.482v65.686c0,4.125-3.355,7.481-7.48,7.481H202.634z"/>
			<path d="M383.245,287.917H270.053c-4.143,0-7.5,3.357-7.5,7.5c0,4.143,3.357,7.5,7.5,7.5h113.192c4.143,0,7.5-3.357,7.5-7.5     C390.744,291.274,387.386,287.917,383.245,287.917z"/>
			<path d="M382.372,321.096h-113.19c-4.143,0-7.5,3.357-7.5,7.5c0,4.143,3.357,7.5,7.5,7.5h113.189c4.142,0,7.5-3.357,7.5-7.5     C389.87,324.453,386.513,321.096,382.372,321.096z"/>
			<path d="M269.182,354.278c-4.143,0-7.5,3.357-7.5,7.5c0,4.143,3.357,7.5,7.5,7.5h113.189c4.142,0,7.5-3.357,7.5-7.5     c0.001-4.143-3.357-7.5-7.499-7.5H269.182z"/>
		</g>
	</g>
</g>
<g>
</g>
<g>
</g>
<g>
</g>
<g>
</g>
<g>
</g>
<g>
</g>
<g>
</g>
<g>
</g>
<g>
</g>
<g>
</g>
<g>
</g>
<g>
</g>
<g>
</g>
<g>
</g>
<g>
</g>
</svg>
