<?xml version="1.0" encoding="iso-8859-1"?>
<!-- Generator: Adobe Illustrator 19.0.0, SVG Export Plug-In . SVG Version: 6.00 Build 0)  -->
<svg xmlns="http://www.w3.org/2000/svg" xmlns:xlink="http://www.w3.org/1999/xlink" version="1.1" id="Layer_1" x="0px" y="0px" viewBox="0 0 512 512" style="enable-background:new 0 0 512 512;" xml:space="preserve">
<g>
	<g>
		<g>
			<path d="M227.112,151.906c0,56.117,45.654,101.77,101.77,101.77c56.117,0,101.77-45.654,101.77-101.77     c0-56.117-45.654-101.77-101.77-101.77S227.112,95.79,227.112,151.906z M415.648,151.906c0,47.843-38.922,86.765-86.765,86.765     c-47.843,0-86.765-38.922-86.765-86.765c0-47.842,38.922-86.765,86.765-86.765C376.725,65.141,415.648,104.064,415.648,151.906z"/>
			<path d="M505.86,294.519l-29.4-29.398c-2.929-2.929-7.679-2.93-10.61,0.001c-2.93,2.93-2.93,7.68,0.001,10.61     c31.767,31.766,31.139,30.284,31.139,33.595c0,3.066-1.56,4.018-6.493,8.95c-2.293,2.297-6.053,2.341-8.394-0.002l-66.131-66.13     c4.555-3.966,9.16-8.567,13.147-13.147l19.804,19.805c2.931,2.929,7.68,2.929,10.61,0c2.93-2.931,2.93-7.68,0-10.61     l-21.153-21.153c38.49-55.92,28.605-132.252-23.819-176.589c-3.162-2.676-7.896-2.279-10.572,0.884     c-2.676,3.163-2.28,7.896,0.884,10.572c84.997,71.889,31.03,207.842-75.992,207.842c-69.915,0-126.455-61.349-116.695-134.262     c11.401-81.038,100.495-126.17,172.417-87.4c3.648,1.968,8.198,0.604,10.163-3.044c1.967-3.647,0.603-8.197-3.044-10.163     c-19.203-10.353-40.934-15.825-62.842-15.825c-46.53,0-87.542,24.051-111.277,60.368c-12.21,3.338-24.079,8.517-35.373,15.485     c-34.276-21.162-75.189-26.547-111.507-10.377c-93.003,41.353-94.444,189.052-3.359,256.267     c-7.148,64.888,13.787,121.664,31.409,141.736c14.292,16.277,30.415,13.38,36.052-8.191c3.765-14.784,1.462-25.124,3.519-44.072     c4.983-44.085,29.723-57.931,57.512-49.819c11.476,3.256,23.547,14.058,28.677,39.52c2.86,14.537,2.446,25.139,2.66,33.739     c1.601,63.019,48.695,49.918,66.456-37.863c0.822-4.061-1.805-8.02-5.865-8.841c-4.057-0.823-8.019,1.805-8.841,5.865     c-8.766,43.318-26.096,64.894-31.336,64.998c-1.981-0.916-3.699-8.042-4.155-10.606c-2.992-16.606,1.419-37.978-8.406-65.801     c-19.033-54.569-108.829-59.499-112.563,39.786c-0.389,8.245,0.399,20.116-2.46,30.363c-1.286,4.507-2.757,6.067-3.103,6.237     c-10.585-0.017-44.254-61.551-34.139-139.608c0.36-2.781-0.86-5.532-3.166-7.13C-3.541,273.465-6.799,140.184,72.77,100.168     c30.277-15.485,69.669-13.764,105.312,9.897c6.575,4.368,8.661-2.575,29-11.172c-38.066,87.127,25.693,184.711,120.352,185.851     c-11.023,18.695-25.573,34.57-42.59,46.368c-7.78,5.396,2.112,13.405-2.502,59.23c-0.415,4.123,2.59,7.802,6.713,8.217     c4.119,0.434,7.801-2.59,8.216-6.712c1.728-17.152,1.668-34.305-0.175-51.053c19.725-14.576,36.2-34.158,48.002-57.033     c21.672-2.649,41.744-10.537,58.917-22.357l67.478,67.478c3.956,3.955,9.216,6.134,14.81,6.134     c9.819,0,14.33-5.656,19.558-10.884C514.045,315.951,514.049,302.702,505.86,294.519z"/>
		</g>
	</g>
</g>
<g>
</g>
<g>
</g>
<g>
</g>
<g>
</g>
<g>
</g>
<g>
</g>
<g>
</g>
<g>
</g>
<g>
</g>
<g>
</g>
<g>
</g>
<g>
</g>
<g>
</g>
<g>
</g>
<g>
</g>
</svg>
