<?xml version="1.0" encoding="iso-8859-1"?>
<!-- Generator: Adobe Illustrator 19.0.0, SVG Export Plug-In . SVG Version: 6.00 Build 0)  -->
<svg xmlns="http://www.w3.org/2000/svg" xmlns:xlink="http://www.w3.org/1999/xlink" version="1.1" id="Layer_1" x="0px" y="0px" viewBox="0 0 512 512" style="enable-background:new 0 0 512 512;" xml:space="preserve">
<g>
	<g>
		<g>
			<path d="M347.775,250.137c3.842,1.546,8.214-0.313,9.762-4.156c30.081-74.702-34.182-145.35-101.543-105.775     c-45.591-26.78-99.141-2.44-107.941,52.966c-5.5,30.55,7.047,71.259,37.912,94.974c-4.006,41.94,12.49,90.024,32.091,90.024     c7.245,0,11.644-5.949,13.452-13.136c1.695-6.706,1.508-13.922,1.558-17.06c0.39-18.461,4.692-36.113,22.927-36.342     c13.195,0.166,18.868,8.839,21.439,21.426l7.35-1.504l-7.327,1.614c1.766,8.626,1.374,17.208,1.605,21.611     c1.407,26.549,17.125,28.446,27.769,16.325c12.328-14.039,22.495-48.361,19.191-82.962c7.284-5.604,13.786-12.338,19.367-20.07     c2.426-3.359,1.667-8.048-1.691-10.474c-3.357-2.424-8.049-1.668-10.474,1.691c-14.188,19.655-23.662,17.984-22.581,26.328     c4.526,34.95-6.709,66.74-15.516,76.109c-2.725-9.54,3.938-53.822-27.861-63.371c-22.284-6.708-44.388,5.101-48.392,37.7     c-1.527,11.676-0.052,18.732-2.012,25.671c-8.751-9.306-20.06-41.039-15.516-76.108c0.36-2.782-0.86-5.531-3.166-7.13     c-27.955-19.378-43.229-58.203-33.1-92.737h-0.001c0.275-0.912,0.462-1.482,0.754-2.364v0.001     c9.638-28.436,34.657-43.18,61.8-38.169c21.799,4.122,24.91,15.124,32.508,10.078c55.691-36.947,108.802,22.193,83.479,85.077     C342.072,244.22,343.933,248.59,347.775,250.137z"/>
			<path d="M434.382,30.625c-3.566-2.106-8.166-0.922-10.274,2.646c-2.107,3.567-0.922,8.168,2.645,10.274     c78.948,46.619,94.153,163.966,31.045,233.191L282.345,469.207c-4.944,5.405-17.892,16.569-26.35,16.569     c-8.107,0-20.468-10.167-26.34-16.561L54.193,276.736C1.965,219.444,1.963,126.221,54.19,68.926     c51.916-56.951,135.634-56.963,187.562,0.001l8.698,9.545c2.975,3.263,8.116,3.261,11.089,0l8.698-9.544     c35.731-39.198,87.672-52.721,135.557-35.296c3.894,1.415,8.197-0.591,9.615-4.484c1.416-3.893-0.591-8.197-4.484-9.615     c-25.772-9.381-53.418-10.845-79.95-4.237c-31.862,7.936-54.69,24.728-74.98,46.986C156.751-46.616,0,31.985,0,172.829     c-0.001,43.032,15.308,83.523,43.104,114.014l175.471,192.49c2.008,2.195,20.114,21.447,37.42,21.447     c17.306,0,35.414-19.251,37.43-21.456l175.462-192.481C538.663,210.304,521.319,81.958,434.382,30.625z"/>
		</g>
	</g>
</g>
<g>
</g>
<g>
</g>
<g>
</g>
<g>
</g>
<g>
</g>
<g>
</g>
<g>
</g>
<g>
</g>
<g>
</g>
<g>
</g>
<g>
</g>
<g>
</g>
<g>
</g>
<g>
</g>
<g>
</g>
</svg>
