<?xml version="1.0" encoding="iso-8859-1"?>
<!-- Generator: Adobe Illustrator 19.0.0, SVG Export Plug-In . SVG Version: 6.00 Build 0)  -->
<svg xmlns="http://www.w3.org/2000/svg" xmlns:xlink="http://www.w3.org/1999/xlink" version="1.1" id="Layer_1" x="0px" y="0px" viewBox="0 0 512 512" style="enable-background:new 0 0 512 512;" xml:space="preserve">
<g>
	<g>
		<g>
			<path d="M500.692,142.663l0.021,0.047c-6.082-15.663-16.367-32.251-29.618-45.359c-2.789-2.998-7.48-3.203-10.522-0.442     c-3.065,2.781-3.296,7.521-0.515,10.588c0.907,0.999,4.628,4.438,9.279,10.35c49.03,61.911,30.012,169.432-42.092,219.425     c-2.303,1.596-3.522,4.343-3.162,7.123c10.716,82.735-24.815,149.958-37.057,149.971c-0.999,0-2.934-3.502-4.119-8.141     c-4.439-17.152,0.998-45.16-9.757-73.965c-18.895-54.126-93.138-54.271-112.044,0.12c-10.488,29.905-5.439,56.944-9.715,73.862     c-2.069,7.892-4.119,8.124-4.119,8.124c-11.966-0.013-47.853-66.614-37.054-149.971c0.36-2.778-0.859-5.527-3.163-7.123     c-53.258-36.927-80.52-108.538-65.316-170.865c2.455-10.008,4.912-15.974,7.256-21.71c1.511-3.422,1.814-5.232,6.006-5.413     c0.489,0.02,0.97-0.005,1.438-0.077c20.539-1.11,39.805-12.429,50.614-30.719c28.484,13.111,54.55-3.727,60.439-25.778     c0.172-0.601,0.318-1.395,0.648-1.831c0.999-0.095,22.127,3.908,44.864,19.004c2.511,1.669,5.778,1.668,8.291,0.001     c40.51-26.89,85.849-27.638,119.561-7.139c8.027,4.86,17.421-7.283,6.336-13.669c-37.957-22.09-86.639-21.266-130.042,5.656     c-16.168-10.026-34.303-16.629-45.85-18.593c-9.508-1.578-16.299,4.684-17.913,11.285c-4.129,16.718-22.762,26.06-39.002,17.972     c-8.511-4.354-16.568-1.109-19.591,4.336c-0.322,0.579-0.655,1.149-1,1.713h0.001c-0.166,0.271-0.315,0.554-0.445,0.844     c-0.87,1.001-12.617,21.02-38.513,21.983c-7.968,0.345-14.934,3.956-18.05,11.03c-4.221,9.076-7.38,18.353-9.681,27.837     c-15.903,64.959,10.636,141.848,67.706,183.806c-8.885,79.758,23.409,162.381,52.448,162.408     c24.532,0,20.34-45.515,22.102-63.527c2.233-23.792,10.129-50.041,33.077-56.722v-0.002c27.98-8,49.194,5.69,57.406,30.606     l-0.001,0.001c9.766,30.541,2.482,51.553,9.364,73.116c4.57,14.377,13.119,16.528,17.817,16.528     c28.837,0,61.411-82.068,52.463-162.408C504.197,299.376,528.375,207.313,500.692,142.663z"/>
			<path d="M149.487,35.037c0-4.141-3.356-7.496-7.496-7.496h-28.606v-2.464c0-12.372-10.064-22.436-22.434-22.436H55.043     c-12.37,0-22.434,10.064-22.434,22.436v2.464H20.053c-10.063,0-20,7.575-20,22.633c0,42.765-0.444,41.112,1.241,43.665     l32.592,49.337h-8.233c-11.467,0-20.797,9.329-20.797,20.797c0,0.929,0,167.867,0,170.693c0,8.822,5.532,16.359,13.301,19.376     v134.519c0,11.467,9.329,20.797,20.797,20.797h17.733c11.467,0,20.797-9.329,20.797-20.797v-77.903     c0-4.141-3.356-7.496-7.495-7.496c-4.14,0-7.496,3.355-7.496,7.496v77.903c0,3.201-2.604,5.806-5.806,5.806H38.954     c-3.201,0-5.806-2.603-5.806-5.806v-133.1h29.344v31.209c0,4.141,3.356,7.496,7.496,7.496s7.496-3.355,7.496-7.496v-32.63     c7.769-3.017,13.301-10.555,13.301-19.376V228.766c0-4.141-3.356-7.496-7.496-7.496s-7.496,3.355-7.496,7.496v78.822H19.848     V191.047h55.946v12.4c0,4.141,3.356,7.496,7.495,7.496s7.496-3.355,7.496-7.496v-39.475c0-11.467-9.329-20.797-20.797-20.797     H51.853l-36.809-55.72V50.174c0-6.387,2.607-7.482,5.21-7.641h12.356v2.464c0,12.371,10.064,22.434,22.434,22.434h35.909     c12.37,0,22.434-10.063,22.434-22.434v-2.464h28.606C146.131,42.533,149.487,39.178,149.487,35.037z M75.793,322.579v12.087     c0,3.201-2.603,5.806-5.806,5.806H25.653c-3.201,0-5.806-2.603-5.806-5.806v-12.087H75.793z M49.834,158.167     c2.969,0,8.924,0,20.155,0c3.201,0,5.805,2.603,5.805,5.806v12.085H19.848v-12.085c0-3.201,2.604-5.806,5.806-5.806     c12.138,0,18.467,0,21.558,0C49.12,158.167,49.799,158.167,49.834,158.167z M98.394,44.996c0,4.104-3.339,7.443-7.443,7.443     H55.043c-4.104,0-7.443-3.339-7.443-7.443V25.078c0-4.105,3.339-7.445,7.443-7.445h35.909c4.104,0,7.443,3.34,7.443,7.445V44.996     z"/>
		</g>
	</g>
</g>
<g>
</g>
<g>
</g>
<g>
</g>
<g>
</g>
<g>
</g>
<g>
</g>
<g>
</g>
<g>
</g>
<g>
</g>
<g>
</g>
<g>
</g>
<g>
</g>
<g>
</g>
<g>
</g>
<g>
</g>
</svg>
