<?xml version="1.0" encoding="iso-8859-1"?>
<!-- Generator: Adobe Illustrator 19.0.0, SVG Export Plug-In . SVG Version: 6.00 Build 0)  -->
<svg xmlns="http://www.w3.org/2000/svg" xmlns:xlink="http://www.w3.org/1999/xlink" version="1.1" id="Layer_1" x="0px" y="0px" viewBox="0 0 512 512" style="enable-background:new 0 0 512 512;" xml:space="preserve">
<g>
	<g>
		<g>
			<path d="M458.946,73.983c-1.96-3.65-6.506-5.02-10.156-3.061c-3.649,1.959-5.02,6.506-3.06,10.155     c40.942,76.261,11.905,183.282-62.003,234.515c-2.305,1.598-3.525,4.347-3.165,7.128     c11.124,85.864-20.378,158.935-39.682,172.411c-0.808,0.564-3.553,2.348-4.913,1.638c-0.313-0.164-7.678-4.374-7.678-36.611     c0-42.059-9.75-87.667-49.504-100.867c-31.825-10.135-94.828-6.165-94.828,100.867c0,32.237-7.364,36.447-7.677,36.611     c-1.367,0.71-4.107-1.074-4.914-1.637c-19.303-13.477-50.804-86.547-39.68-172.412c0.36-2.781-0.861-5.53-3.165-7.128     C72.226,276.565,39.337,202.964,49.979,131.25C65.902,28.958,165.353-17.5,251.978,39.967c2.512,1.667,5.779,1.667,8.291,0     C321.42-0.597,391.936,9.814,432.413,60.777c2.576,3.244,7.295,3.783,10.537,1.208c3.244-2.576,3.785-7.294,1.209-10.538     C401.022-2.866,324.708-18.092,256.124,24.797C161.268-34.526,52.565,17.476,35.172,128.851     c-11.192,61.923,14.512,147.847,81.095,196.433c-11.458,101.407,33.994,201.978,66.948,184.787     c24.043-12.537,8.637-61.12,23.517-103.462c18.63-51.708,106.558-60.391,106.558,53.551c0,28.061,5.149,44.387,15.742,49.91     c32.826,17.129,78.438-83.099,66.949-184.787C473.672,268.592,502.65,155.394,458.946,73.983z"/>
			<path d="M389.831,227.031c3.741,1.779,8.216,0.187,9.993-3.555c34.976-73.563-6.305-151.934-67.093-152.568     c-20.038-0.515-40.315,4.956-55.634,17.654c-0.365,0.304-2.989,2.569-3.232,2.855c-19.003,16.323-32.17,2.295-40.393-4.284     c-14.615-11.396-32.405-16.191-50.931-16.261l-0.169-0.001c-18.168-0.079-32.909,5.278-42.208,12.199     c-20.51,15.301-34.297,38.531-38.83,65.421c-1.155,5.942-1.696,12.073-1.609,18.225c-0.193,17.771,3.455,35.423,10.843,52.463     c10.231,23.597,26.551,43.474,47.324,57.697c-3.705,37.961,2.53,85.766,4.42,92.199c2.322,7.897,13.796,6.795,14.654-1.328     c0.116-1.096,12.342-109.6,79.205-109.6c66.742,0,79.088,108.508,79.204,109.6c0.86,8.144,12.351,9.151,14.653,1.331     c1.563-5.31,8.296-52.494,4.421-92.202c12.31-8.432,23.091-18.893,32.083-31.14c2.452-3.339,1.732-8.033-1.605-10.484     c-3.339-2.45-8.033-1.732-10.484,1.606c-12.662,17.243-28.876,28.397-31.048,29.347c-2.979,1.35-4.74,4.474-4.353,7.722     c1.908,15.974,1.885,32.818,1.126,47.551c-13.817-41.722-39.894-78.331-83.997-78.331c-44.112,0-70.186,36.622-83.997,78.33     c-2.452-47.581,5.513-50.922-3.287-55.299c-19.64-12.716-35.044-31.026-44.557-52.966c-19.283-44.476-8.812-92.954,24.694-118.04     c19.378-13.333,54.843-12.928,76.643,4.932c1.286,1.073,3.073,2.72,3.073,2.72c17.001,14.582,37.182,15.766,56.464-1.453     c22.291-19.159,58.296-19.826,78.111-6.199c36.303,27.177,43.418,78.825,22.96,121.866     C384.498,220.779,386.089,225.253,389.831,227.031z"/>
		</g>
	</g>
</g>
<g>
</g>
<g>
</g>
<g>
</g>
<g>
</g>
<g>
</g>
<g>
</g>
<g>
</g>
<g>
</g>
<g>
</g>
<g>
</g>
<g>
</g>
<g>
</g>
<g>
</g>
<g>
</g>
<g>
</g>
</svg>
