<?xml version="1.0" encoding="iso-8859-1"?>
<!-- Generator: Adobe Illustrator 19.0.0, SVG Export Plug-In . SVG Version: 6.00 Build 0)  -->
<svg version="1.1" id="Layer_1" xmlns="http://www.w3.org/2000/svg" xmlns:xlink="http://www.w3.org/1999/xlink" x="0px" y="0px"
	 viewBox="0 0 511.999 511.999" style="enable-background:new 0 0 511.999 511.999;" xml:space="preserve">
<g>
	<g>
		<path d="M504.24,187.241c-20.963,0.72-74.82-0.19-122.029-24.037c-36.858-18.621-71.031-68.404-126.209-10.991
			c-55.171-57.404-89.313-7.652-126.212,10.991C82.583,187.052,28.721,187.958,7.76,187.241c-6.717-0.271-10.433,8.034-5.49,12.859
			c3.909,10.266,26.731,64.785,96.382,141.259c27.35,30.029,57.906,45.255,90.82,45.255c31.83,0,56.525-14.445,66.529-21.365
			c10.006,6.921,34.703,21.365,66.527,21.365c32.914,0,63.471-15.226,90.82-45.255c69.653-76.474,92.474-130.993,96.382-141.259
			C514.639,195.306,511.024,187.004,504.24,187.241z M402.258,331.259c-24.389,26.777-51.214,40.356-79.73,40.356
			c-35.367,0-61.476-21.259-61.723-21.463c-2.785-2.324-6.831-2.32-9.609,0c-0.258,0.215-26.134,21.463-61.725,21.463
			c-28.517,0-55.342-13.578-79.73-40.356c-33.03-36.266-55.296-67.633-69.822-91.236c112.679,93.632,319.071,94.039,432.242-0.066
			C457.658,263.527,435.388,294.886,402.258,331.259z M33.653,213.962c96.819,35.366,233.902,40.365,337.961,25.511
			c4.101-0.585,6.95-4.384,6.365-8.484c-0.585-4.101-4.387-6.951-8.484-6.365c-104.996,14.987-236.022,8.667-326.749-23.312
			c26.742-2.202,61.622-8.462,93.805-24.72c43.363-21.91,64.569-64.747,113.799-8.338c2.983,3.419,8.31,3.426,11.302,0
			c49.252-56.439,70.528-13.519,113.795,8.338c32.182,16.256,67.049,22.516,93.789,24.719
			c-22.059,7.775-47.587,14.353-75.461,19.393c-4.076,0.736-6.783,4.638-6.046,8.714c0.737,4.076,4.634,6.776,8.714,6.047
			c30.387-5.494,58.157-12.806,81.949-21.514C371.092,322.06,141.88,323.029,33.653,213.962z"/>
	</g>
</g>
<g>
</g>
<g>
</g>
<g>
</g>
<g>
</g>
<g>
</g>
<g>
</g>
<g>
</g>
<g>
</g>
<g>
</g>
<g>
</g>
<g>
</g>
<g>
</g>
<g>
</g>
<g>
</g>
<g>
</g>
</svg>
